<svg width="1352" height="826" viewBox="0 0 1352 826" fill="none" xmlns="http://www.w3.org/2000/svg">
<mask id="mask0_103_1285" style="mask-type:alpha" maskUnits="userSpaceOnUse" x="1014" y="0" width="338" height="826">
<rect x="1014" y="826" width="826" height="338" transform="rotate(-90 1014 826)" fill="white"/>
</mask>
<g mask="url(#mask0_103_1285)">
<rect x="1014" y="826" width="826" height="338" transform="rotate(-90 1014 826)" fill="white"/>
<rect x="1150.5" width="261.5" height="192" fill="url(#paint0_linear_103_1285)"/>
<path d="M1048.5 24L1080.98 42.75V80.25L1048.5 99L1016.02 80.25V42.75L1048.5 24Z" fill="#F8F8F8"/>
<path d="M1048.5 256L1080.98 274.75V312.25L1048.5 331L1016.02 312.25V274.75L1048.5 256Z" fill="#F8F8F8"/>
<path d="M1048.5 140L1080.98 158.75V196.25L1048.5 215L1016.02 196.25V158.75L1048.5 140Z" fill="#F8F8F8"/>
<path d="M1048.5 372L1080.98 390.75V428.25L1048.5 447L1016.02 428.25V390.75L1048.5 372Z" fill="#F8F8F8"/>
<path d="M1048.5 24L1080.98 42.75V80.25L1048.5 99L1016.02 80.25V42.75L1048.5 24Z" fill="#F8F8F8"/>
<path d="M1048.5 256L1080.98 274.75V312.25L1048.5 331L1016.02 312.25V274.75L1048.5 256Z" fill="#F8F8F8"/>
<path d="M1048.5 140L1080.98 158.75V196.25L1048.5 215L1016.02 196.25V158.75L1048.5 140Z" fill="#F8F8F8"/>
<path d="M1048.5 372L1080.98 390.75V428.25L1048.5 447L1016.02 428.25V390.75L1048.5 372Z" fill="#F8F8F8"/>
<path d="M1048.5 24L1080.98 42.75V80.25L1048.5 99L1016.02 80.25V42.75L1048.5 24Z" fill="#F8F8F8"/>
<path d="M1048.5 256L1080.98 274.75V312.25L1048.5 331L1016.02 312.25V274.75L1048.5 256Z" fill="#F8F8F8"/>
<path d="M1048.5 140L1080.98 158.75V196.25L1048.5 215L1016.02 196.25V158.75L1048.5 140Z" fill="#F8F8F8"/>
<path d="M1048.5 372L1080.98 390.75V428.25L1048.5 447L1016.02 428.25V390.75L1048.5 372Z" fill="#F8F8F8"/>
<path d="M1048.5 24L1080.98 42.75V80.25L1048.5 99L1016.02 80.25V42.75L1048.5 24Z" fill="#F8F8F8"/>
<path d="M1048.5 256L1080.98 274.75V312.25L1048.5 331L1016.02 312.25V274.75L1048.5 256Z" fill="#F8F8F8"/>
<path d="M1048.5 140L1080.98 158.75V196.25L1048.5 215L1016.02 196.25V158.75L1048.5 140Z" fill="#F8F8F8"/>
<path d="M1048.5 372L1080.98 390.75V428.25L1048.5 447L1016.02 428.25V390.75L1048.5 372Z" fill="#F8F8F8"/>
<path d="M1014.5 -34L1046.98 -15.25V22.25L1014.5 41L982.024 22.25V-15.25L1014.5 -34Z" fill="#F8F8F8"/>
<path d="M1014.5 -34L1046.98 -15.25V22.25L1014.5 41L982.024 22.25V-15.25L1014.5 -34Z" fill="#F8F8F8"/>
<path d="M1014.5 -34L1046.98 -15.25V22.25L1014.5 41L982.024 22.25V-15.25L1014.5 -34Z" fill="#F8F8F8"/>
<path d="M1014.5 -34L1046.98 -15.25V22.25L1014.5 41L982.024 22.25V-15.25L1014.5 -34Z" fill="#F8F8F8"/>
<path d="M1014.5 82L1046.98 100.75V138.25L1014.5 157L982.024 138.25V100.75L1014.5 82Z" fill="#F8F8F8"/>
<path d="M1014.5 314L1046.98 332.75V370.25L1014.5 389L982.024 370.25V332.75L1014.5 314Z" fill="#F8F8F8"/>
<path d="M1014.5 198L1046.98 216.75V254.25L1014.5 273L982.024 254.25V216.75L1014.5 198Z" fill="#F8F8F8"/>
<path d="M1014.5 82L1046.98 100.75V138.25L1014.5 157L982.024 138.25V100.75L1014.5 82Z" fill="#F8F8F8"/>
<path d="M1014.5 314L1046.98 332.75V370.25L1014.5 389L982.024 370.25V332.75L1014.5 314Z" fill="#F8F8F8"/>
<path d="M1014.5 198L1046.98 216.75V254.25L1014.5 273L982.024 254.25V216.75L1014.5 198Z" fill="#F8F8F8"/>
<path d="M1252.5 24L1284.98 42.75V80.25L1252.5 99L1220.02 80.25V42.75L1252.5 24Z" fill="#F8F8F8"/>
<path d="M1252.5 256L1284.98 274.75V312.25L1252.5 331L1220.02 312.25V274.75L1252.5 256Z" fill="#F8F8F8"/>
<path d="M1252.5 140L1284.98 158.75V196.25L1252.5 215L1220.02 196.25V158.75L1252.5 140Z" fill="#F8F8F8"/>
<path d="M1252.5 24L1284.98 42.75V80.25L1252.5 99L1220.02 80.25V42.75L1252.5 24Z" fill="#F8F8F8"/>
<path d="M1252.5 256L1284.98 274.75V312.25L1252.5 331L1220.02 312.25V274.75L1252.5 256Z" fill="#F8F8F8"/>
<path d="M1252.5 140L1284.98 158.75V196.25L1252.5 215L1220.02 196.25V158.75L1252.5 140Z" fill="#F8F8F8"/>
<path d="M1252.5 24L1284.98 42.75V80.25L1252.5 99L1220.02 80.25V42.75L1252.5 24Z" fill="#F8F8F8"/>
<path d="M1252.5 256L1284.98 274.75V312.25L1252.5 331L1220.02 312.25V274.75L1252.5 256Z" fill="#F8F8F8"/>
<path d="M1252.5 140L1284.98 158.75V196.25L1252.5 215L1220.02 196.25V158.75L1252.5 140Z" fill="#F8F8F8"/>
<path d="M1252.5 24L1284.98 42.75V80.25L1252.5 99L1220.02 80.25V42.75L1252.5 24Z" fill="#F8F8F8"/>
<path d="M1252.5 256L1284.98 274.75V312.25L1252.5 331L1220.02 312.25V274.75L1252.5 256Z" fill="#F8F8F8"/>
<path d="M1252.5 140L1284.98 158.75V196.25L1252.5 215L1220.02 196.25V158.75L1252.5 140Z" fill="#F8F8F8"/>
<path d="M1218.5 -34L1250.98 -15.25V22.25L1218.5 41L1186.02 22.25V-15.25L1218.5 -34Z" fill="#F8F8F8"/>
<path d="M1218.5 -34L1250.98 -15.25V22.25L1218.5 41L1186.02 22.25V-15.25L1218.5 -34Z" fill="#F8F8F8"/>
<path d="M1218.5 -34L1250.98 -15.25V22.25L1218.5 41L1186.02 22.25V-15.25L1218.5 -34Z" fill="#F8F8F8"/>
<path d="M1218.5 -34L1250.98 -15.25V22.25L1218.5 41L1186.02 22.25V-15.25L1218.5 -34Z" fill="#F8F8F8"/>
<path d="M1218.5 82L1250.98 100.75V138.25L1218.5 157L1186.02 138.25V100.75L1218.5 82Z" fill="#F8F8F8"/>
<path d="M1218.5 546L1250.98 564.75V602.25L1218.5 621L1186.02 602.25V564.75L1218.5 546Z" fill="#F8F8F8"/>
<path d="M1218.5 314L1250.98 332.75V370.25L1218.5 389L1186.02 370.25V332.75L1218.5 314Z" fill="#F8F8F8"/>
<path d="M1218.5 198L1250.98 216.75V254.25L1218.5 273L1186.02 254.25V216.75L1218.5 198Z" fill="#F8F8F8"/>
<path d="M1218.5 430L1250.98 448.75V486.25L1218.5 505L1186.02 486.25V448.75L1218.5 430Z" fill="#F8F8F8"/>
<path d="M1218.5 82L1250.98 100.75V138.25L1218.5 157L1186.02 138.25V100.75L1218.5 82Z" fill="#F8F8F8"/>
<path d="M1218.5 546L1250.98 564.75V602.25L1218.5 621L1186.02 602.25V564.75L1218.5 546Z" fill="#F8F8F8"/>
<path d="M1218.5 314L1250.98 332.75V370.25L1218.5 389L1186.02 370.25V332.75L1218.5 314Z" fill="#F8F8F8"/>
<path d="M1218.5 198L1250.98 216.75V254.25L1218.5 273L1186.02 254.25V216.75L1218.5 198Z" fill="#F8F8F8"/>
<path d="M1218.5 430L1250.98 448.75V486.25L1218.5 505L1186.02 486.25V448.75L1218.5 430Z" fill="#F8F8F8"/>
<path d="M1184.5 24L1216.98 42.75V80.25L1184.5 99L1152.02 80.25V42.75L1184.5 24Z" fill="#F8F8F8"/>
<path d="M1184.5 488L1216.98 506.75V544.25L1184.5 563L1152.02 544.25V506.75L1184.5 488Z" fill="#F8F8F8"/>
<path d="M1184.5 256L1216.98 274.75V312.25L1184.5 331L1152.02 312.25V274.75L1184.5 256Z" fill="#F8F8F8"/>
<path d="M1184.5 140L1216.98 158.75V196.25L1184.5 215L1152.02 196.25V158.75L1184.5 140Z" fill="#F8F8F8"/>
<path d="M1184.5 604L1216.98 622.75V660.25L1184.5 679L1152.02 660.25V622.75L1184.5 604Z" fill="#F8F8F8"/>
<path d="M1184.5 372L1216.98 390.75V428.25L1184.5 447L1152.02 428.25V390.75L1184.5 372Z" fill="#F8F8F8"/>
<path d="M1184.5 24L1216.98 42.75V80.25L1184.5 99L1152.02 80.25V42.75L1184.5 24Z" fill="#F8F8F8"/>
<path d="M1184.5 488L1216.98 506.75V544.25L1184.5 563L1152.02 544.25V506.75L1184.5 488Z" fill="#F8F8F8"/>
<path d="M1184.5 256L1216.98 274.75V312.25L1184.5 331L1152.02 312.25V274.75L1184.5 256Z" fill="#F8F8F8"/>
<path d="M1184.5 140L1216.98 158.75V196.25L1184.5 215L1152.02 196.25V158.75L1184.5 140Z" fill="#F8F8F8"/>
<path d="M1184.5 604L1216.98 622.75V660.25L1184.5 679L1152.02 660.25V622.75L1184.5 604Z" fill="#F8F8F8"/>
<path d="M1184.5 372L1216.98 390.75V428.25L1184.5 447L1152.02 428.25V390.75L1184.5 372Z" fill="#F8F8F8"/>
<path d="M1184.5 24L1216.98 42.75V80.25L1184.5 99L1152.02 80.25V42.75L1184.5 24Z" fill="#F8F8F8"/>
<path d="M1184.5 488L1216.98 506.75V544.25L1184.5 563L1152.02 544.25V506.75L1184.5 488Z" fill="#F8F8F8"/>
<path d="M1184.5 256L1216.98 274.75V312.25L1184.5 331L1152.02 312.25V274.75L1184.5 256Z" fill="#F8F8F8"/>
<path d="M1184.5 140L1216.98 158.75V196.25L1184.5 215L1152.02 196.25V158.75L1184.5 140Z" fill="#F8F8F8"/>
<path d="M1184.5 604L1216.98 622.75V660.25L1184.5 679L1152.02 660.25V622.75L1184.5 604Z" fill="#F8F8F8"/>
<path d="M1184.5 372L1216.98 390.75V428.25L1184.5 447L1152.02 428.25V390.75L1184.5 372Z" fill="#F8F8F8"/>
<path d="M1184.5 24L1216.98 42.75V80.25L1184.5 99L1152.02 80.25V42.75L1184.5 24Z" fill="#F8F8F8"/>
<path d="M1184.5 488L1216.98 506.75V544.25L1184.5 563L1152.02 544.25V506.75L1184.5 488Z" fill="#F8F8F8"/>
<path d="M1184.5 256L1216.98 274.75V312.25L1184.5 331L1152.02 312.25V274.75L1184.5 256Z" fill="#F8F8F8"/>
<path d="M1184.5 140L1216.98 158.75V196.25L1184.5 215L1152.02 196.25V158.75L1184.5 140Z" fill="#F8F8F8"/>
<path d="M1184.5 604L1216.98 622.75V660.25L1184.5 679L1152.02 660.25V622.75L1184.5 604Z" fill="#F8F8F8"/>
<path d="M1184.5 372L1216.98 390.75V428.25L1184.5 447L1152.02 428.25V390.75L1184.5 372Z" fill="#F8F8F8"/>
<path d="M1150.5 -34L1182.98 -15.25V22.25L1150.5 41L1118.02 22.25V-15.25L1150.5 -34Z" fill="#F8F8F8"/>
<path d="M1150.5 -34L1182.98 -15.25V22.25L1150.5 41L1118.02 22.25V-15.25L1150.5 -34Z" fill="#F8F8F8"/>
<path d="M1150.5 -34L1182.98 -15.25V22.25L1150.5 41L1118.02 22.25V-15.25L1150.5 -34Z" fill="#F8F8F8"/>
<path d="M1150.5 -34L1182.98 -15.25V22.25L1150.5 41L1118.02 22.25V-15.25L1150.5 -34Z" fill="#F8F8F8"/>
<path d="M1150.5 82L1182.98 100.75V138.25L1150.5 157L1118.02 138.25V100.75L1150.5 82Z" fill="#F8F8F8"/>
<path d="M1150.5 546L1182.98 564.75V602.25L1150.5 621L1118.02 602.25V564.75L1150.5 546Z" fill="#F8F8F8"/>
<path d="M1150.5 314L1182.98 332.75V370.25L1150.5 389L1118.02 370.25V332.75L1150.5 314Z" fill="#F8F8F8"/>
<path d="M1150.5 662L1182.98 680.75V718.25L1150.5 737L1118.02 718.25V680.75L1150.5 662Z" fill="#F8F8F8"/>
<path d="M1150.5 82L1182.98 100.75V138.25L1150.5 157L1118.02 138.25V100.75L1150.5 82Z" fill="#F8F8F8"/>
<path d="M1150.5 546L1182.98 564.75V602.25L1150.5 621L1118.02 602.25V564.75L1150.5 546Z" fill="#F8F8F8"/>
<path d="M1150.5 314L1182.98 332.75V370.25L1150.5 389L1118.02 370.25V332.75L1150.5 314Z" fill="#F8F8F8"/>
<path d="M1150.5 662L1182.98 680.75V718.25L1150.5 737L1118.02 718.25V680.75L1150.5 662Z" fill="#F8F8F8"/>
<path d="M1354.5 -34L1386.98 -15.25V22.25L1354.5 41L1322.02 22.25V-15.25L1354.5 -34Z" fill="#F8F8F8"/>
<path d="M1354.5 -34L1386.98 -15.25V22.25L1354.5 41L1322.02 22.25V-15.25L1354.5 -34Z" fill="#F8F8F8"/>
<path d="M1354.5 -34L1386.98 -15.25V22.25L1354.5 41L1322.02 22.25V-15.25L1354.5 -34Z" fill="#F8F8F8"/>
<path d="M1354.5 -34L1386.98 -15.25V22.25L1354.5 41L1322.02 22.25V-15.25L1354.5 -34Z" fill="#F8F8F8"/>
<path d="M1354.5 82L1386.98 100.75V138.25L1354.5 157L1322.02 138.25V100.75L1354.5 82Z" fill="#F8F8F8"/>
<path d="M1354.5 546L1386.98 564.75V602.25L1354.5 621L1322.02 602.25V564.75L1354.5 546Z" fill="#F8F8F8"/>
<path d="M1354.5 314L1386.98 332.75V370.25L1354.5 389L1322.02 370.25V332.75L1354.5 314Z" fill="#F8F8F8"/>
<path d="M1354.5 198L1386.98 216.75V254.25L1354.5 273L1322.02 254.25V216.75L1354.5 198Z" fill="#F8F8F8"/>
<path d="M1354.5 430L1386.98 448.75V486.25L1354.5 505L1322.02 486.25V448.75L1354.5 430Z" fill="#F8F8F8"/>
<path d="M1354.5 82L1386.98 100.75V138.25L1354.5 157L1322.02 138.25V100.75L1354.5 82Z" fill="#F8F8F8"/>
<path d="M1354.5 546L1386.98 564.75V602.25L1354.5 621L1322.02 602.25V564.75L1354.5 546Z" fill="#F8F8F8"/>
<path d="M1354.5 314L1386.98 332.75V370.25L1354.5 389L1322.02 370.25V332.75L1354.5 314Z" fill="#F8F8F8"/>
<path d="M1354.5 198L1386.98 216.75V254.25L1354.5 273L1322.02 254.25V216.75L1354.5 198Z" fill="#F8F8F8"/>
<path d="M1354.5 430L1386.98 448.75V486.25L1354.5 505L1322.02 486.25V448.75L1354.5 430Z" fill="#F8F8F8"/>
<path d="M1116.5 24L1148.98 42.75V80.25L1116.5 99L1084.02 80.25V42.75L1116.5 24Z" fill="#F8F8F8"/>
<path d="M1116.5 488L1148.98 506.75V544.25L1116.5 563L1084.02 544.25V506.75L1116.5 488Z" fill="#F8F8F8"/>
<path d="M1116.5 256L1148.98 274.75V312.25L1116.5 331L1084.02 312.25V274.75L1116.5 256Z" fill="#F8F8F8"/>
<path d="M1116.5 140L1148.98 158.75V196.25L1116.5 215L1084.02 196.25V158.75L1116.5 140Z" fill="#F8F8F8"/>
<path d="M1116.5 24L1148.98 42.75V80.25L1116.5 99L1084.02 80.25V42.75L1116.5 24Z" fill="#F8F8F8"/>
<path d="M1116.5 488L1148.98 506.75V544.25L1116.5 563L1084.02 544.25V506.75L1116.5 488Z" fill="#F8F8F8"/>
<path d="M1116.5 256L1148.98 274.75V312.25L1116.5 331L1084.02 312.25V274.75L1116.5 256Z" fill="#F8F8F8"/>
<path d="M1116.5 140L1148.98 158.75V196.25L1116.5 215L1084.02 196.25V158.75L1116.5 140Z" fill="#F8F8F8"/>
<path d="M1116.5 24L1148.98 42.75V80.25L1116.5 99L1084.02 80.25V42.75L1116.5 24Z" fill="#F8F8F8"/>
<path d="M1116.5 488L1148.98 506.75V544.25L1116.5 563L1084.02 544.25V506.75L1116.5 488Z" fill="#F8F8F8"/>
<path d="M1116.5 256L1148.98 274.75V312.25L1116.5 331L1084.02 312.25V274.75L1116.5 256Z" fill="#F8F8F8"/>
<path d="M1116.5 140L1148.98 158.75V196.25L1116.5 215L1084.02 196.25V158.75L1116.5 140Z" fill="#F8F8F8"/>
<path d="M1116.5 24L1148.98 42.75V80.25L1116.5 99L1084.02 80.25V42.75L1116.5 24Z" fill="#F8F8F8"/>
<path d="M1116.5 488L1148.98 506.75V544.25L1116.5 563L1084.02 544.25V506.75L1116.5 488Z" fill="#F8F8F8"/>
<path d="M1116.5 256L1148.98 274.75V312.25L1116.5 331L1084.02 312.25V274.75L1116.5 256Z" fill="#F8F8F8"/>
<path d="M1116.5 140L1148.98 158.75V196.25L1116.5 215L1084.02 196.25V158.75L1116.5 140Z" fill="#F8F8F8"/>
<path d="M1082.5 -34L1114.98 -15.25V22.25L1082.5 41L1050.02 22.25V-15.25L1082.5 -34Z" fill="#F8F8F8"/>
<path d="M1082.5 -34L1114.98 -15.25V22.25L1082.5 41L1050.02 22.25V-15.25L1082.5 -34Z" fill="#F8F8F8"/>
<path d="M1082.5 -34L1114.98 -15.25V22.25L1082.5 41L1050.02 22.25V-15.25L1082.5 -34Z" fill="#F8F8F8"/>
<path d="M1082.5 -34L1114.98 -15.25V22.25L1082.5 41L1050.02 22.25V-15.25L1082.5 -34Z" fill="#F8F8F8"/>
<path d="M1082.5 82L1114.98 100.75V138.25L1082.5 157L1050.02 138.25V100.75L1082.5 82Z" fill="#F8F8F8"/>
<path d="M1082.5 314L1114.98 332.75V370.25L1082.5 389L1050.02 370.25V332.75L1082.5 314Z" fill="#F8F8F8"/>
<path d="M1082.5 198L1114.98 216.75V254.25L1082.5 273L1050.02 254.25V216.75L1082.5 198Z" fill="#F8F8F8"/>
<path d="M1082.5 430L1114.98 448.75V486.25L1082.5 505L1050.02 486.25V448.75L1082.5 430Z" fill="#F8F8F8"/>
<path d="M1082.5 82L1114.98 100.75V138.25L1082.5 157L1050.02 138.25V100.75L1082.5 82Z" fill="#F8F8F8"/>
<path d="M1082.5 314L1114.98 332.75V370.25L1082.5 389L1050.02 370.25V332.75L1082.5 314Z" fill="#F8F8F8"/>
<path d="M1082.5 198L1114.98 216.75V254.25L1082.5 273L1050.02 254.25V216.75L1082.5 198Z" fill="#F8F8F8"/>
<path d="M1082.5 430L1114.98 448.75V486.25L1082.5 505L1050.02 486.25V448.75L1082.5 430Z" fill="#F8F8F8"/>
<path d="M1320.5 24L1352.98 42.75V80.25L1320.5 99L1288.02 80.25V42.75L1320.5 24Z" fill="#F8F8F8"/>
<path d="M1320.5 488L1352.98 506.75V544.25L1320.5 563L1288.02 544.25V506.75L1320.5 488Z" fill="#F8F8F8"/>
<path d="M1320.5 256L1352.98 274.75V312.25L1320.5 331L1288.02 312.25V274.75L1320.5 256Z" fill="#F8F8F8"/>
<path d="M1320.5 140L1352.98 158.75V196.25L1320.5 215L1288.02 196.25V158.75L1320.5 140Z" fill="#F8F8F8"/>
<path d="M1320.5 372L1352.98 390.75V428.25L1320.5 447L1288.02 428.25V390.75L1320.5 372Z" fill="#F8F8F8"/>
<path d="M1320.5 24L1352.98 42.75V80.25L1320.5 99L1288.02 80.25V42.75L1320.5 24Z" fill="#F8F8F8"/>
<path d="M1320.5 488L1352.98 506.75V544.25L1320.5 563L1288.02 544.25V506.75L1320.5 488Z" fill="#F8F8F8"/>
<path d="M1320.5 256L1352.98 274.75V312.25L1320.5 331L1288.02 312.25V274.75L1320.5 256Z" fill="#F8F8F8"/>
<path d="M1320.5 140L1352.98 158.75V196.25L1320.5 215L1288.02 196.25V158.75L1320.5 140Z" fill="#F8F8F8"/>
<path d="M1320.5 372L1352.98 390.75V428.25L1320.5 447L1288.02 428.25V390.75L1320.5 372Z" fill="#F8F8F8"/>
<path d="M1320.5 24L1352.98 42.75V80.25L1320.5 99L1288.02 80.25V42.75L1320.5 24Z" fill="#F8F8F8"/>
<path d="M1320.5 488L1352.98 506.75V544.25L1320.5 563L1288.02 544.25V506.75L1320.5 488Z" fill="#F8F8F8"/>
<path d="M1320.5 256L1352.98 274.75V312.25L1320.5 331L1288.02 312.25V274.75L1320.5 256Z" fill="#F8F8F8"/>
<path d="M1320.5 140L1352.98 158.75V196.25L1320.5 215L1288.02 196.25V158.75L1320.5 140Z" fill="#F8F8F8"/>
<path d="M1320.5 372L1352.98 390.75V428.25L1320.5 447L1288.02 428.25V390.75L1320.5 372Z" fill="#F8F8F8"/>
<path d="M1320.5 24L1352.98 42.75V80.25L1320.5 99L1288.02 80.25V42.75L1320.5 24Z" fill="#F8F8F8"/>
<path d="M1320.5 488L1352.98 506.75V544.25L1320.5 563L1288.02 544.25V506.75L1320.5 488Z" fill="#F8F8F8"/>
<path d="M1320.5 256L1352.98 274.75V312.25L1320.5 331L1288.02 312.25V274.75L1320.5 256Z" fill="#F8F8F8"/>
<path d="M1320.5 140L1352.98 158.75V196.25L1320.5 215L1288.02 196.25V158.75L1320.5 140Z" fill="#F8F8F8"/>
<path d="M1320.5 372L1352.98 390.75V428.25L1320.5 447L1288.02 428.25V390.75L1320.5 372Z" fill="#F8F8F8"/>
<path d="M1286.5 -34L1318.98 -15.25V22.25L1286.5 41L1254.02 22.25V-15.25L1286.5 -34Z" fill="#F8F8F8"/>
<path d="M1286.5 -34L1318.98 -15.25V22.25L1286.5 41L1254.02 22.25V-15.25L1286.5 -34Z" fill="#F8F8F8"/>
<path d="M1286.5 -34L1318.98 -15.25V22.25L1286.5 41L1254.02 22.25V-15.25L1286.5 -34Z" fill="#F8F8F8"/>
<path d="M1286.5 -34L1318.98 -15.25V22.25L1286.5 41L1254.02 22.25V-15.25L1286.5 -34Z" fill="#F8F8F8"/>
<path d="M1286.5 82L1318.98 100.75V138.25L1286.5 157L1254.02 138.25V100.75L1286.5 82Z" fill="#F8F8F8"/>
<path d="M1286.5 314L1318.98 332.75V370.25L1286.5 389L1254.02 370.25V332.75L1286.5 314Z" fill="#F8F8F8"/>
<path d="M1286.5 198L1318.98 216.75V254.25L1286.5 273L1254.02 254.25V216.75L1286.5 198Z" fill="#F8F8F8"/>
<path d="M1286.5 430L1318.98 448.75V486.25L1286.5 505L1254.02 486.25V448.75L1286.5 430Z" fill="#F8F8F8"/>
<path d="M1286.5 82L1318.98 100.75V138.25L1286.5 157L1254.02 138.25V100.75L1286.5 82Z" fill="#F8F8F8"/>
<path d="M1286.5 314L1318.98 332.75V370.25L1286.5 389L1254.02 370.25V332.75L1286.5 314Z" fill="#F8F8F8"/>
<path d="M1286.5 198L1318.98 216.75V254.25L1286.5 273L1254.02 254.25V216.75L1286.5 198Z" fill="#F8F8F8"/>
<path d="M1286.5 430L1318.98 448.75V486.25L1286.5 505L1254.02 486.25V448.75L1286.5 430Z" fill="#F8F8F8"/>
</g>
<mask id="mask1_103_1285" style="mask-type:alpha" maskUnits="userSpaceOnUse" x="676" y="0" width="338" height="826">
<rect x="676" y="826" width="826" height="338" transform="rotate(-90 676 826)" fill="white"/>
</mask>
<g mask="url(#mask1_103_1285)">
<rect x="676" y="826" width="826" height="338" transform="rotate(-90 676 826)" fill="white"/>
<rect x="550" width="194.5" height="374" fill="url(#paint1_linear_103_1285)"/>
<path d="M710.5 24L742.976 42.75V80.25L710.5 99L678.024 80.25V42.75L710.5 24Z" fill="#F8F8F8"/>
<path d="M710.5 488L742.976 506.75V544.25L710.5 563L678.024 544.25V506.75L710.5 488Z" fill="#F8F8F8"/>
<path d="M710.5 256L742.976 274.75V312.25L710.5 331L678.024 312.25V274.75L710.5 256Z" fill="#F8F8F8"/>
<path d="M710.5 140L742.976 158.75V196.25L710.5 215L678.024 196.25V158.75L710.5 140Z" fill="#F8F8F8"/>
<path d="M710.5 604L742.976 622.75V660.25L710.5 679L678.024 660.25V622.75L710.5 604Z" fill="#F8F8F8"/>
<path d="M710.5 372L742.976 390.75V428.25L710.5 447L678.024 428.25V390.75L710.5 372Z" fill="#F8F8F8"/>
<path d="M710.5 24L742.976 42.75V80.25L710.5 99L678.024 80.25V42.75L710.5 24Z" fill="#F8F8F8"/>
<path d="M710.5 488L742.976 506.75V544.25L710.5 563L678.024 544.25V506.75L710.5 488Z" fill="#F8F8F8"/>
<path d="M710.5 256L742.976 274.75V312.25L710.5 331L678.024 312.25V274.75L710.5 256Z" fill="#F8F8F8"/>
<path d="M710.5 140L742.976 158.75V196.25L710.5 215L678.024 196.25V158.75L710.5 140Z" fill="#F8F8F8"/>
<path d="M710.5 604L742.976 622.75V660.25L710.5 679L678.024 660.25V622.75L710.5 604Z" fill="#F8F8F8"/>
<path d="M710.5 372L742.976 390.75V428.25L710.5 447L678.024 428.25V390.75L710.5 372Z" fill="#F8F8F8"/>
<path d="M710.5 24L742.976 42.75V80.25L710.5 99L678.024 80.25V42.75L710.5 24Z" fill="#F8F8F8"/>
<path d="M710.5 488L742.976 506.75V544.25L710.5 563L678.024 544.25V506.75L710.5 488Z" fill="#F8F8F8"/>
<path d="M710.5 256L742.976 274.75V312.25L710.5 331L678.024 312.25V274.75L710.5 256Z" fill="#F8F8F8"/>
<path d="M710.5 140L742.976 158.75V196.25L710.5 215L678.024 196.25V158.75L710.5 140Z" fill="#F8F8F8"/>
<path d="M710.5 604L742.976 622.75V660.25L710.5 679L678.024 660.25V622.75L710.5 604Z" fill="#F8F8F8"/>
<path d="M710.5 372L742.976 390.75V428.25L710.5 447L678.024 428.25V390.75L710.5 372Z" fill="#F8F8F8"/>
<path d="M710.5 24L742.976 42.75V80.25L710.5 99L678.024 80.25V42.75L710.5 24Z" fill="#F8F8F8"/>
<path d="M710.5 488L742.976 506.75V544.25L710.5 563L678.024 544.25V506.75L710.5 488Z" fill="#F8F8F8"/>
<path d="M710.5 256L742.976 274.75V312.25L710.5 331L678.024 312.25V274.75L710.5 256Z" fill="#F8F8F8"/>
<path d="M710.5 140L742.976 158.75V196.25L710.5 215L678.024 196.25V158.75L710.5 140Z" fill="#F8F8F8"/>
<path d="M710.5 604L742.976 622.75V660.25L710.5 679L678.024 660.25V622.75L710.5 604Z" fill="#F8F8F8"/>
<path d="M710.5 372L742.976 390.75V428.25L710.5 447L678.024 428.25V390.75L710.5 372Z" fill="#F8F8F8"/>
<path d="M676.5 -34L708.976 -15.25V22.25L676.5 41L644.024 22.25V-15.25L676.5 -34Z" fill="#F8F8F8"/>
<path d="M676.5 -34L708.976 -15.25V22.25L676.5 41L644.024 22.25V-15.25L676.5 -34Z" fill="#F8F8F8"/>
<path d="M676.5 -34L708.976 -15.25V22.25L676.5 41L644.024 22.25V-15.25L676.5 -34Z" fill="#F8F8F8"/>
<path d="M676.5 -34L708.976 -15.25V22.25L676.5 41L644.024 22.25V-15.25L676.5 -34Z" fill="#F8F8F8"/>
<path d="M676.5 82L708.976 100.75V138.25L676.5 157L644.024 138.25V100.75L676.5 82Z" fill="#F8F8F8"/>
<path d="M676.5 314L708.976 332.75V370.25L676.5 389L644.024 370.25V332.75L676.5 314Z" fill="#F8F8F8"/>
<path d="M676.5 198L708.976 216.75V254.25L676.5 273L644.024 254.25V216.75L676.5 198Z" fill="#F8F8F8"/>
<path d="M676.5 82L708.976 100.75V138.25L676.5 157L644.024 138.25V100.75L676.5 82Z" fill="#F8F8F8"/>
<path d="M676.5 314L708.976 332.75V370.25L676.5 389L644.024 370.25V332.75L676.5 314Z" fill="#F8F8F8"/>
<path d="M676.5 198L708.976 216.75V254.25L676.5 273L644.024 254.25V216.75L676.5 198Z" fill="#F8F8F8"/>
<path d="M914.5 24L946.976 42.75V80.25L914.5 99L882.024 80.25V42.75L914.5 24Z" fill="#F8F8F8"/>
<path d="M914.5 256L946.976 274.75V312.25L914.5 331L882.024 312.25V274.75L914.5 256Z" fill="#F8F8F8"/>
<path d="M914.5 720L946.976 738.75V776.25L914.5 795L882.024 776.25V738.75L914.5 720Z" fill="#F8F8F8"/>
<path d="M914.5 24L946.976 42.75V80.25L914.5 99L882.024 80.25V42.75L914.5 24Z" fill="#F8F8F8"/>
<path d="M914.5 256L946.976 274.75V312.25L914.5 331L882.024 312.25V274.75L914.5 256Z" fill="#F8F8F8"/>
<path d="M914.5 720L946.976 738.75V776.25L914.5 795L882.024 776.25V738.75L914.5 720Z" fill="#F8F8F8"/>
<path d="M914.5 24L946.976 42.75V80.25L914.5 99L882.024 80.25V42.75L914.5 24Z" fill="#F8F8F8"/>
<path d="M914.5 256L946.976 274.75V312.25L914.5 331L882.024 312.25V274.75L914.5 256Z" fill="#F8F8F8"/>
<path d="M914.5 720L946.976 738.75V776.25L914.5 795L882.024 776.25V738.75L914.5 720Z" fill="#F8F8F8"/>
<path d="M914.5 24L946.976 42.75V80.25L914.5 99L882.024 80.25V42.75L914.5 24Z" fill="#F8F8F8"/>
<path d="M914.5 256L946.976 274.75V312.25L914.5 331L882.024 312.25V274.75L914.5 256Z" fill="#F8F8F8"/>
<path d="M914.5 720L946.976 738.75V776.25L914.5 795L882.024 776.25V738.75L914.5 720Z" fill="#F8F8F8"/>
<path d="M880.5 -34L912.976 -15.25V22.25L880.5 41L848.024 22.25V-15.25L880.5 -34Z" fill="#F8F8F8"/>
<path d="M880.5 -34L912.976 -15.25V22.25L880.5 41L848.024 22.25V-15.25L880.5 -34Z" fill="#F8F8F8"/>
<path d="M880.5 -34L912.976 -15.25V22.25L880.5 41L848.024 22.25V-15.25L880.5 -34Z" fill="#F8F8F8"/>
<path d="M880.5 -34L912.976 -15.25V22.25L880.5 41L848.024 22.25V-15.25L880.5 -34Z" fill="#F8F8F8"/>
<path d="M880.5 82L912.976 100.75V138.25L880.5 157L848.024 138.25V100.75L880.5 82Z" fill="#F8F8F8"/>
<path d="M880.5 546L912.976 564.75V602.25L880.5 621L848.024 602.25V564.75L880.5 546Z" fill="#F8F8F8"/>
<path d="M880.5 314L912.976 332.75V370.25L880.5 389L848.024 370.25V332.75L880.5 314Z" fill="#F8F8F8"/>
<path d="M880.5 198L912.976 216.75V254.25L880.5 273L848.024 254.25V216.75L880.5 198Z" fill="#F8F8F8"/>
<path d="M880.5 430L912.976 448.75V486.25L880.5 505L848.024 486.25V448.75L880.5 430Z" fill="#F8F8F8"/>
<path d="M880.5 82L912.976 100.75V138.25L880.5 157L848.024 138.25V100.75L880.5 82Z" fill="#F8F8F8"/>
<path d="M880.5 546L912.976 564.75V602.25L880.5 621L848.024 602.25V564.75L880.5 546Z" fill="#F8F8F8"/>
<path d="M880.5 314L912.976 332.75V370.25L880.5 389L848.024 370.25V332.75L880.5 314Z" fill="#F8F8F8"/>
<path d="M880.5 198L912.976 216.75V254.25L880.5 273L848.024 254.25V216.75L880.5 198Z" fill="#F8F8F8"/>
<path d="M880.5 430L912.976 448.75V486.25L880.5 505L848.024 486.25V448.75L880.5 430Z" fill="#F8F8F8"/>
<path d="M846.5 24L878.976 42.75V80.25L846.5 99L814.024 80.25V42.75L846.5 24Z" fill="#F8F8F8"/>
<path d="M846.5 488L878.976 506.75V544.25L846.5 563L814.024 544.25V506.75L846.5 488Z" fill="#F8F8F8"/>
<path d="M846.5 256L878.976 274.75V312.25L846.5 331L814.024 312.25V274.75L846.5 256Z" fill="#F8F8F8"/>
<path d="M846.5 140L878.976 158.75V196.25L846.5 215L814.024 196.25V158.75L846.5 140Z" fill="#F8F8F8"/>
<path d="M846.5 604L878.976 622.75V660.25L846.5 679L814.024 660.25V622.75L846.5 604Z" fill="#F8F8F8"/>
<path d="M846.5 372L878.976 390.75V428.25L846.5 447L814.024 428.25V390.75L846.5 372Z" fill="#F8F8F8"/>
<path d="M846.5 24L878.976 42.75V80.25L846.5 99L814.024 80.25V42.75L846.5 24Z" fill="#F8F8F8"/>
<path d="M846.5 488L878.976 506.75V544.25L846.5 563L814.024 544.25V506.75L846.5 488Z" fill="#F8F8F8"/>
<path d="M846.5 256L878.976 274.75V312.25L846.5 331L814.024 312.25V274.75L846.5 256Z" fill="#F8F8F8"/>
<path d="M846.5 140L878.976 158.75V196.25L846.5 215L814.024 196.25V158.75L846.5 140Z" fill="#F8F8F8"/>
<path d="M846.5 604L878.976 622.75V660.25L846.5 679L814.024 660.25V622.75L846.5 604Z" fill="#F8F8F8"/>
<path d="M846.5 372L878.976 390.75V428.25L846.5 447L814.024 428.25V390.75L846.5 372Z" fill="#F8F8F8"/>
<path d="M846.5 24L878.976 42.75V80.25L846.5 99L814.024 80.25V42.75L846.5 24Z" fill="#F8F8F8"/>
<path d="M846.5 488L878.976 506.75V544.25L846.5 563L814.024 544.25V506.75L846.5 488Z" fill="#F8F8F8"/>
<path d="M846.5 256L878.976 274.75V312.25L846.5 331L814.024 312.25V274.75L846.5 256Z" fill="#F8F8F8"/>
<path d="M846.5 140L878.976 158.75V196.25L846.5 215L814.024 196.25V158.75L846.5 140Z" fill="#F8F8F8"/>
<path d="M846.5 604L878.976 622.75V660.25L846.5 679L814.024 660.25V622.75L846.5 604Z" fill="#F8F8F8"/>
<path d="M846.5 372L878.976 390.75V428.25L846.5 447L814.024 428.25V390.75L846.5 372Z" fill="#F8F8F8"/>
<path d="M846.5 24L878.976 42.75V80.25L846.5 99L814.024 80.25V42.75L846.5 24Z" fill="#F8F8F8"/>
<path d="M846.5 488L878.976 506.75V544.25L846.5 563L814.024 544.25V506.75L846.5 488Z" fill="#F8F8F8"/>
<path d="M846.5 256L878.976 274.75V312.25L846.5 331L814.024 312.25V274.75L846.5 256Z" fill="#F8F8F8"/>
<path d="M846.5 140L878.976 158.75V196.25L846.5 215L814.024 196.25V158.75L846.5 140Z" fill="#F8F8F8"/>
<path d="M846.5 604L878.976 622.75V660.25L846.5 679L814.024 660.25V622.75L846.5 604Z" fill="#F8F8F8"/>
<path d="M846.5 372L878.976 390.75V428.25L846.5 447L814.024 428.25V390.75L846.5 372Z" fill="#F8F8F8"/>
<path d="M812.5 -34L844.976 -15.25V22.25L812.5 41L780.024 22.25V-15.25L812.5 -34Z" fill="#F8F8F8"/>
<path d="M812.5 -34L844.976 -15.25V22.25L812.5 41L780.024 22.25V-15.25L812.5 -34Z" fill="#F8F8F8"/>
<path d="M812.5 -34L844.976 -15.25V22.25L812.5 41L780.024 22.25V-15.25L812.5 -34Z" fill="#F8F8F8"/>
<path d="M812.5 -34L844.976 -15.25V22.25L812.5 41L780.024 22.25V-15.25L812.5 -34Z" fill="#F8F8F8"/>
<path d="M812.5 82L844.976 100.75V138.25L812.5 157L780.024 138.25V100.75L812.5 82Z" fill="#F8F8F8"/>
<path d="M812.5 546L844.976 564.75V602.25L812.5 621L780.024 602.25V564.75L812.5 546Z" fill="#F8F8F8"/>
<path d="M812.5 314L844.976 332.75V370.25L812.5 389L780.024 370.25V332.75L812.5 314Z" fill="#F8F8F8"/>
<path d="M812.5 198L844.976 216.75V254.25L812.5 273L780.024 254.25V216.75L812.5 198Z" fill="#F8F8F8"/>
<path d="M812.5 662L844.976 680.75V718.25L812.5 737L780.024 718.25V680.75L812.5 662Z" fill="#F8F8F8"/>
<path d="M812.5 82L844.976 100.75V138.25L812.5 157L780.024 138.25V100.75L812.5 82Z" fill="#F8F8F8"/>
<path d="M812.5 546L844.976 564.75V602.25L812.5 621L780.024 602.25V564.75L812.5 546Z" fill="#F8F8F8"/>
<path d="M812.5 314L844.976 332.75V370.25L812.5 389L780.024 370.25V332.75L812.5 314Z" fill="#F8F8F8"/>
<path d="M812.5 198L844.976 216.75V254.25L812.5 273L780.024 254.25V216.75L812.5 198Z" fill="#F8F8F8"/>
<path d="M812.5 662L844.976 680.75V718.25L812.5 737L780.024 718.25V680.75L812.5 662Z" fill="#F8F8F8"/>
<path d="M1016.5 -34L1048.98 -15.25V22.25L1016.5 41L984.024 22.25V-15.25L1016.5 -34Z" fill="#F8F8F8"/>
<path d="M1016.5 -34L1048.98 -15.25V22.25L1016.5 41L984.024 22.25V-15.25L1016.5 -34Z" fill="#F8F8F8"/>
<path d="M1016.5 -34L1048.98 -15.25V22.25L1016.5 41L984.024 22.25V-15.25L1016.5 -34Z" fill="#F8F8F8"/>
<path d="M1016.5 -34L1048.98 -15.25V22.25L1016.5 41L984.024 22.25V-15.25L1016.5 -34Z" fill="#F8F8F8"/>
<path d="M1016.5 82L1048.98 100.75V138.25L1016.5 157L984.024 138.25V100.75L1016.5 82Z" fill="#F8F8F8"/>
<path d="M1016.5 314L1048.98 332.75V370.25L1016.5 389L984.024 370.25V332.75L1016.5 314Z" fill="#F8F8F8"/>
<path d="M1016.5 198L1048.98 216.75V254.25L1016.5 273L984.024 254.25V216.75L1016.5 198Z" fill="#F8F8F8"/>
<path d="M1016.5 82L1048.98 100.75V138.25L1016.5 157L984.024 138.25V100.75L1016.5 82Z" fill="#F8F8F8"/>
<path d="M1016.5 314L1048.98 332.75V370.25L1016.5 389L984.024 370.25V332.75L1016.5 314Z" fill="#F8F8F8"/>
<path d="M1016.5 198L1048.98 216.75V254.25L1016.5 273L984.024 254.25V216.75L1016.5 198Z" fill="#F8F8F8"/>
<path d="M778.5 24L810.976 42.75V80.25L778.5 99L746.024 80.25V42.75L778.5 24Z" fill="#F8F8F8"/>
<path d="M778.5 488L810.976 506.75V544.25L778.5 563L746.024 544.25V506.75L778.5 488Z" fill="#F8F8F8"/>
<path d="M778.5 256L810.976 274.75V312.25L778.5 331L746.024 312.25V274.75L778.5 256Z" fill="#F8F8F8"/>
<path d="M778.5 140L810.976 158.75V196.25L778.5 215L746.024 196.25V158.75L778.5 140Z" fill="#F8F8F8"/>
<path d="M778.5 24L810.976 42.75V80.25L778.5 99L746.024 80.25V42.75L778.5 24Z" fill="#F8F8F8"/>
<path d="M778.5 488L810.976 506.75V544.25L778.5 563L746.024 544.25V506.75L778.5 488Z" fill="#F8F8F8"/>
<path d="M778.5 256L810.976 274.75V312.25L778.5 331L746.024 312.25V274.75L778.5 256Z" fill="#F8F8F8"/>
<path d="M778.5 140L810.976 158.75V196.25L778.5 215L746.024 196.25V158.75L778.5 140Z" fill="#F8F8F8"/>
<path d="M778.5 24L810.976 42.75V80.25L778.5 99L746.024 80.25V42.75L778.5 24Z" fill="#F8F8F8"/>
<path d="M778.5 488L810.976 506.75V544.25L778.5 563L746.024 544.25V506.75L778.5 488Z" fill="#F8F8F8"/>
<path d="M778.5 256L810.976 274.75V312.25L778.5 331L746.024 312.25V274.75L778.5 256Z" fill="#F8F8F8"/>
<path d="M778.5 140L810.976 158.75V196.25L778.5 215L746.024 196.25V158.75L778.5 140Z" fill="#F8F8F8"/>
<path d="M778.5 24L810.976 42.75V80.25L778.5 99L746.024 80.25V42.75L778.5 24Z" fill="#F8F8F8"/>
<path d="M778.5 488L810.976 506.75V544.25L778.5 563L746.024 544.25V506.75L778.5 488Z" fill="#F8F8F8"/>
<path d="M778.5 256L810.976 274.75V312.25L778.5 331L746.024 312.25V274.75L778.5 256Z" fill="#F8F8F8"/>
<path d="M778.5 140L810.976 158.75V196.25L778.5 215L746.024 196.25V158.75L778.5 140Z" fill="#F8F8F8"/>
<path d="M744.5 -34L776.976 -15.25V22.25L744.5 41L712.024 22.25V-15.25L744.5 -34Z" fill="#F8F8F8"/>
<path d="M744.5 -34L776.976 -15.25V22.25L744.5 41L712.024 22.25V-15.25L744.5 -34Z" fill="#F8F8F8"/>
<path d="M744.5 -34L776.976 -15.25V22.25L744.5 41L712.024 22.25V-15.25L744.5 -34Z" fill="#F8F8F8"/>
<path d="M744.5 -34L776.976 -15.25V22.25L744.5 41L712.024 22.25V-15.25L744.5 -34Z" fill="#F8F8F8"/>
<path d="M744.5 82L776.976 100.75V138.25L744.5 157L712.024 138.25V100.75L744.5 82Z" fill="#F8F8F8"/>
<path d="M744.5 314L776.976 332.75V370.25L744.5 389L712.024 370.25V332.75L744.5 314Z" fill="#F8F8F8"/>
<path d="M744.5 198L776.976 216.75V254.25L744.5 273L712.024 254.25V216.75L744.5 198Z" fill="#F8F8F8"/>
<path d="M744.5 430L776.976 448.75V486.25L744.5 505L712.024 486.25V448.75L744.5 430Z" fill="#F8F8F8"/>
<path d="M744.5 82L776.976 100.75V138.25L744.5 157L712.024 138.25V100.75L744.5 82Z" fill="#F8F8F8"/>
<path d="M744.5 314L776.976 332.75V370.25L744.5 389L712.024 370.25V332.75L744.5 314Z" fill="#F8F8F8"/>
<path d="M744.5 198L776.976 216.75V254.25L744.5 273L712.024 254.25V216.75L744.5 198Z" fill="#F8F8F8"/>
<path d="M744.5 430L776.976 448.75V486.25L744.5 505L712.024 486.25V448.75L744.5 430Z" fill="#F8F8F8"/>
<path d="M982.5 24L1014.98 42.75V80.25L982.5 99L950.024 80.25V42.75L982.5 24Z" fill="#F8F8F8"/>
<path d="M982.5 488L1014.98 506.75V544.25L982.5 563L950.024 544.25V506.75L982.5 488Z" fill="#F8F8F8"/>
<path d="M982.5 256L1014.98 274.75V312.25L982.5 331L950.024 312.25V274.75L982.5 256Z" fill="#F8F8F8"/>
<path d="M982.5 140L1014.98 158.75V196.25L982.5 215L950.024 196.25V158.75L982.5 140Z" fill="#F8F8F8"/>
<path d="M982.5 372L1014.98 390.75V428.25L982.5 447L950.024 428.25V390.75L982.5 372Z" fill="#F8F8F8"/>
<path d="M982.5 24L1014.98 42.75V80.25L982.5 99L950.024 80.25V42.75L982.5 24Z" fill="#F8F8F8"/>
<path d="M982.5 488L1014.98 506.75V544.25L982.5 563L950.024 544.25V506.75L982.5 488Z" fill="#F8F8F8"/>
<path d="M982.5 256L1014.98 274.75V312.25L982.5 331L950.024 312.25V274.75L982.5 256Z" fill="#F8F8F8"/>
<path d="M982.5 140L1014.98 158.75V196.25L982.5 215L950.024 196.25V158.75L982.5 140Z" fill="#F8F8F8"/>
<path d="M982.5 372L1014.98 390.75V428.25L982.5 447L950.024 428.25V390.75L982.5 372Z" fill="#F8F8F8"/>
<path d="M982.5 24L1014.98 42.75V80.25L982.5 99L950.024 80.25V42.75L982.5 24Z" fill="#F8F8F8"/>
<path d="M982.5 488L1014.98 506.75V544.25L982.5 563L950.024 544.25V506.75L982.5 488Z" fill="#F8F8F8"/>
<path d="M982.5 256L1014.98 274.75V312.25L982.5 331L950.024 312.25V274.75L982.5 256Z" fill="#F8F8F8"/>
<path d="M982.5 140L1014.98 158.75V196.25L982.5 215L950.024 196.25V158.75L982.5 140Z" fill="#F8F8F8"/>
<path d="M982.5 372L1014.98 390.75V428.25L982.5 447L950.024 428.25V390.75L982.5 372Z" fill="#F8F8F8"/>
<path d="M982.5 24L1014.98 42.75V80.25L982.5 99L950.024 80.25V42.75L982.5 24Z" fill="#F8F8F8"/>
<path d="M982.5 488L1014.98 506.75V544.25L982.5 563L950.024 544.25V506.75L982.5 488Z" fill="#F8F8F8"/>
<path d="M982.5 256L1014.98 274.75V312.25L982.5 331L950.024 312.25V274.75L982.5 256Z" fill="#F8F8F8"/>
<path d="M982.5 140L1014.98 158.75V196.25L982.5 215L950.024 196.25V158.75L982.5 140Z" fill="#F8F8F8"/>
<path d="M982.5 372L1014.98 390.75V428.25L982.5 447L950.024 428.25V390.75L982.5 372Z" fill="#F8F8F8"/>
<path d="M948.5 -34L980.976 -15.25V22.25L948.5 41L916.024 22.25V-15.25L948.5 -34Z" fill="#F8F8F8"/>
<path d="M948.5 -34L980.976 -15.25V22.25L948.5 41L916.024 22.25V-15.25L948.5 -34Z" fill="#F8F8F8"/>
<path d="M948.5 -34L980.976 -15.25V22.25L948.5 41L916.024 22.25V-15.25L948.5 -34Z" fill="#F8F8F8"/>
<path d="M948.5 -34L980.976 -15.25V22.25L948.5 41L916.024 22.25V-15.25L948.5 -34Z" fill="#F8F8F8"/>
<path d="M948.5 82L980.976 100.75V138.25L948.5 157L916.024 138.25V100.75L948.5 82Z" fill="#F8F8F8"/>
<path d="M948.5 314L980.976 332.75V370.25L948.5 389L916.024 370.25V332.75L948.5 314Z" fill="#F8F8F8"/>
<path d="M948.5 198L980.976 216.75V254.25L948.5 273L916.024 254.25V216.75L948.5 198Z" fill="#F8F8F8"/>
<path d="M948.5 430L980.976 448.75V486.25L948.5 505L916.024 486.25V448.75L948.5 430Z" fill="#F8F8F8"/>
<path d="M948.5 82L980.976 100.75V138.25L948.5 157L916.024 138.25V100.75L948.5 82Z" fill="#F8F8F8"/>
<path d="M948.5 314L980.976 332.75V370.25L948.5 389L916.024 370.25V332.75L948.5 314Z" fill="#F8F8F8"/>
<path d="M948.5 198L980.976 216.75V254.25L948.5 273L916.024 254.25V216.75L948.5 198Z" fill="#F8F8F8"/>
<path d="M948.5 430L980.976 448.75V486.25L948.5 505L916.024 486.25V448.75L948.5 430Z" fill="#F8F8F8"/>
</g>
<mask id="mask2_103_1285" style="mask-type:alpha" maskUnits="userSpaceOnUse" x="338" y="0" width="338" height="826">
<rect x="338" y="826" width="826" height="338" transform="rotate(-90 338 826)" fill="white"/>
</mask>
<g mask="url(#mask2_103_1285)">
<rect x="338" y="826" width="826" height="338" transform="rotate(-90 338 826)" fill="white"/>
<rect x="474.5" width="261.5" height="192" fill="url(#paint2_linear_103_1285)"/>
<path d="M372.5 24L404.976 42.75V80.25L372.5 99L340.024 80.25V42.75L372.5 24Z" fill="#F8F8F8"/>
<path d="M372.5 488L404.976 506.75V544.25L372.5 563L340.024 544.25V506.75L372.5 488Z" fill="#F8F8F8"/>
<path d="M372.5 256L404.976 274.75V312.25L372.5 331L340.024 312.25V274.75L372.5 256Z" fill="#F8F8F8"/>
<path d="M372.5 140L404.976 158.75V196.25L372.5 215L340.024 196.25V158.75L372.5 140Z" fill="#F8F8F8"/>
<path d="M372.5 372L404.976 390.75V428.25L372.5 447L340.024 428.25V390.75L372.5 372Z" fill="#F8F8F8"/>
<path d="M372.5 24L404.976 42.75V80.25L372.5 99L340.024 80.25V42.75L372.5 24Z" fill="#F8F8F8"/>
<path d="M372.5 488L404.976 506.75V544.25L372.5 563L340.024 544.25V506.75L372.5 488Z" fill="#F8F8F8"/>
<path d="M372.5 256L404.976 274.75V312.25L372.5 331L340.024 312.25V274.75L372.5 256Z" fill="#F8F8F8"/>
<path d="M372.5 140L404.976 158.75V196.25L372.5 215L340.024 196.25V158.75L372.5 140Z" fill="#F8F8F8"/>
<path d="M372.5 372L404.976 390.75V428.25L372.5 447L340.024 428.25V390.75L372.5 372Z" fill="#F8F8F8"/>
<path d="M372.5 24L404.976 42.75V80.25L372.5 99L340.024 80.25V42.75L372.5 24Z" fill="#F8F8F8"/>
<path d="M372.5 488L404.976 506.75V544.25L372.5 563L340.024 544.25V506.75L372.5 488Z" fill="#F8F8F8"/>
<path d="M372.5 256L404.976 274.75V312.25L372.5 331L340.024 312.25V274.75L372.5 256Z" fill="#F8F8F8"/>
<path d="M372.5 140L404.976 158.75V196.25L372.5 215L340.024 196.25V158.75L372.5 140Z" fill="#F8F8F8"/>
<path d="M372.5 372L404.976 390.75V428.25L372.5 447L340.024 428.25V390.75L372.5 372Z" fill="#F8F8F8"/>
<path d="M372.5 24L404.976 42.75V80.25L372.5 99L340.024 80.25V42.75L372.5 24Z" fill="#F8F8F8"/>
<path d="M372.5 488L404.976 506.75V544.25L372.5 563L340.024 544.25V506.75L372.5 488Z" fill="#F8F8F8"/>
<path d="M372.5 256L404.976 274.75V312.25L372.5 331L340.024 312.25V274.75L372.5 256Z" fill="#F8F8F8"/>
<path d="M372.5 140L404.976 158.75V196.25L372.5 215L340.024 196.25V158.75L372.5 140Z" fill="#F8F8F8"/>
<path d="M372.5 372L404.976 390.75V428.25L372.5 447L340.024 428.25V390.75L372.5 372Z" fill="#F8F8F8"/>
<path d="M338.5 -34L370.976 -15.25V22.25L338.5 41L306.024 22.25V-15.25L338.5 -34Z" fill="#F8F8F8"/>
<path d="M338.5 -34L370.976 -15.25V22.25L338.5 41L306.024 22.25V-15.25L338.5 -34Z" fill="#F8F8F8"/>
<path d="M338.5 -34L370.976 -15.25V22.25L338.5 41L306.024 22.25V-15.25L338.5 -34Z" fill="#F8F8F8"/>
<path d="M338.5 -34L370.976 -15.25V22.25L338.5 41L306.024 22.25V-15.25L338.5 -34Z" fill="#F8F8F8"/>
<path d="M338.5 82L370.976 100.75V138.25L338.5 157L306.024 138.25V100.75L338.5 82Z" fill="#F8F8F8"/>
<path d="M338.5 314L370.976 332.75V370.25L338.5 389L306.024 370.25V332.75L338.5 314Z" fill="#F8F8F8"/>
<path d="M338.5 198L370.976 216.75V254.25L338.5 273L306.024 254.25V216.75L338.5 198Z" fill="#F8F8F8"/>
<path d="M338.5 82L370.976 100.75V138.25L338.5 157L306.024 138.25V100.75L338.5 82Z" fill="#F8F8F8"/>
<path d="M338.5 314L370.976 332.75V370.25L338.5 389L306.024 370.25V332.75L338.5 314Z" fill="#F8F8F8"/>
<path d="M338.5 198L370.976 216.75V254.25L338.5 273L306.024 254.25V216.75L338.5 198Z" fill="#F8F8F8"/>
<path d="M576.5 24L608.976 42.75V80.25L576.5 99L544.024 80.25V42.75L576.5 24Z" fill="#F8F8F8"/>
<path d="M576.5 256L608.976 274.75V312.25L576.5 331L544.024 312.25V274.75L576.5 256Z" fill="#F8F8F8"/>
<path d="M576.5 720L608.976 738.75V776.25L576.5 795L544.024 776.25V738.75L576.5 720Z" fill="#F8F8F8"/>
<path d="M576.5 140L608.976 158.75V196.25L576.5 215L544.024 196.25V158.75L576.5 140Z" fill="#F8F8F8"/>
<path d="M576.5 24L608.976 42.75V80.25L576.5 99L544.024 80.25V42.75L576.5 24Z" fill="#F8F8F8"/>
<path d="M576.5 256L608.976 274.75V312.25L576.5 331L544.024 312.25V274.75L576.5 256Z" fill="#F8F8F8"/>
<path d="M576.5 720L608.976 738.75V776.25L576.5 795L544.024 776.25V738.75L576.5 720Z" fill="#F8F8F8"/>
<path d="M576.5 140L608.976 158.75V196.25L576.5 215L544.024 196.25V158.75L576.5 140Z" fill="#F8F8F8"/>
<path d="M576.5 24L608.976 42.75V80.25L576.5 99L544.024 80.25V42.75L576.5 24Z" fill="#F8F8F8"/>
<path d="M576.5 256L608.976 274.75V312.25L576.5 331L544.024 312.25V274.75L576.5 256Z" fill="#F8F8F8"/>
<path d="M576.5 720L608.976 738.75V776.25L576.5 795L544.024 776.25V738.75L576.5 720Z" fill="#F8F8F8"/>
<path d="M576.5 140L608.976 158.75V196.25L576.5 215L544.024 196.25V158.75L576.5 140Z" fill="#F8F8F8"/>
<path d="M576.5 24L608.976 42.75V80.25L576.5 99L544.024 80.25V42.75L576.5 24Z" fill="#F8F8F8"/>
<path d="M576.5 256L608.976 274.75V312.25L576.5 331L544.024 312.25V274.75L576.5 256Z" fill="#F8F8F8"/>
<path d="M576.5 720L608.976 738.75V776.25L576.5 795L544.024 776.25V738.75L576.5 720Z" fill="#F8F8F8"/>
<path d="M576.5 140L608.976 158.75V196.25L576.5 215L544.024 196.25V158.75L576.5 140Z" fill="#F8F8F8"/>
<path d="M542.5 -34L574.976 -15.25V22.25L542.5 41L510.024 22.25V-15.25L542.5 -34Z" fill="#F8F8F8"/>
<path d="M542.5 -34L574.976 -15.25V22.25L542.5 41L510.024 22.25V-15.25L542.5 -34Z" fill="#F8F8F8"/>
<path d="M542.5 -34L574.976 -15.25V22.25L542.5 41L510.024 22.25V-15.25L542.5 -34Z" fill="#F8F8F8"/>
<path d="M542.5 -34L574.976 -15.25V22.25L542.5 41L510.024 22.25V-15.25L542.5 -34Z" fill="#F8F8F8"/>
<path d="M542.5 82L574.976 100.75V138.25L542.5 157L510.024 138.25V100.75L542.5 82Z" fill="#F8F8F8"/>
<path d="M542.5 314L574.976 332.75V370.25L542.5 389L510.024 370.25V332.75L542.5 314Z" fill="#F8F8F8"/>
<path d="M542.5 198L574.976 216.75V254.25L542.5 273L510.024 254.25V216.75L542.5 198Z" fill="#F8F8F8"/>
<path d="M542.5 430L574.976 448.75V486.25L542.5 505L510.024 486.25V448.75L542.5 430Z" fill="#F8F8F8"/>
<path d="M542.5 82L574.976 100.75V138.25L542.5 157L510.024 138.25V100.75L542.5 82Z" fill="#F8F8F8"/>
<path d="M542.5 314L574.976 332.75V370.25L542.5 389L510.024 370.25V332.75L542.5 314Z" fill="#F8F8F8"/>
<path d="M542.5 198L574.976 216.75V254.25L542.5 273L510.024 254.25V216.75L542.5 198Z" fill="#F8F8F8"/>
<path d="M542.5 430L574.976 448.75V486.25L542.5 505L510.024 486.25V448.75L542.5 430Z" fill="#F8F8F8"/>
<path d="M508.5 24L540.976 42.75V80.25L508.5 99L476.024 80.25V42.75L508.5 24Z" fill="#F8F8F8"/>
<path d="M508.5 256L540.976 274.75V312.25L508.5 331L476.024 312.25V274.75L508.5 256Z" fill="#F8F8F8"/>
<path d="M508.5 140L540.976 158.75V196.25L508.5 215L476.024 196.25V158.75L508.5 140Z" fill="#F8F8F8"/>
<path d="M508.5 604L540.976 622.75V660.25L508.5 679L476.024 660.25V622.75L508.5 604Z" fill="#F8F8F8"/>
<path d="M508.5 372L540.976 390.75V428.25L508.5 447L476.024 428.25V390.75L508.5 372Z" fill="#F8F8F8"/>
<path d="M508.5 24L540.976 42.75V80.25L508.5 99L476.024 80.25V42.75L508.5 24Z" fill="#F8F8F8"/>
<path d="M508.5 256L540.976 274.75V312.25L508.5 331L476.024 312.25V274.75L508.5 256Z" fill="#F8F8F8"/>
<path d="M508.5 140L540.976 158.75V196.25L508.5 215L476.024 196.25V158.75L508.5 140Z" fill="#F8F8F8"/>
<path d="M508.5 604L540.976 622.75V660.25L508.5 679L476.024 660.25V622.75L508.5 604Z" fill="#F8F8F8"/>
<path d="M508.5 372L540.976 390.75V428.25L508.5 447L476.024 428.25V390.75L508.5 372Z" fill="#F8F8F8"/>
<path d="M508.5 24L540.976 42.75V80.25L508.5 99L476.024 80.25V42.75L508.5 24Z" fill="#F8F8F8"/>
<path d="M508.5 256L540.976 274.75V312.25L508.5 331L476.024 312.25V274.75L508.5 256Z" fill="#F8F8F8"/>
<path d="M508.5 140L540.976 158.75V196.25L508.5 215L476.024 196.25V158.75L508.5 140Z" fill="#F8F8F8"/>
<path d="M508.5 604L540.976 622.75V660.25L508.5 679L476.024 660.25V622.75L508.5 604Z" fill="#F8F8F8"/>
<path d="M508.5 372L540.976 390.75V428.25L508.5 447L476.024 428.25V390.75L508.5 372Z" fill="#F8F8F8"/>
<path d="M508.5 24L540.976 42.75V80.25L508.5 99L476.024 80.25V42.75L508.5 24Z" fill="#F8F8F8"/>
<path d="M508.5 256L540.976 274.75V312.25L508.5 331L476.024 312.25V274.75L508.5 256Z" fill="#F8F8F8"/>
<path d="M508.5 140L540.976 158.75V196.25L508.5 215L476.024 196.25V158.75L508.5 140Z" fill="#F8F8F8"/>
<path d="M508.5 604L540.976 622.75V660.25L508.5 679L476.024 660.25V622.75L508.5 604Z" fill="#F8F8F8"/>
<path d="M508.5 372L540.976 390.75V428.25L508.5 447L476.024 428.25V390.75L508.5 372Z" fill="#F8F8F8"/>
<path d="M474.5 -34L506.976 -15.25V22.25L474.5 41L442.024 22.25V-15.25L474.5 -34Z" fill="#F8F8F8"/>
<path d="M474.5 -34L506.976 -15.25V22.25L474.5 41L442.024 22.25V-15.25L474.5 -34Z" fill="#F8F8F8"/>
<path d="M474.5 -34L506.976 -15.25V22.25L474.5 41L442.024 22.25V-15.25L474.5 -34Z" fill="#F8F8F8"/>
<path d="M474.5 -34L506.976 -15.25V22.25L474.5 41L442.024 22.25V-15.25L474.5 -34Z" fill="#F8F8F8"/>
<path d="M474.5 82L506.976 100.75V138.25L474.5 157L442.024 138.25V100.75L474.5 82Z" fill="#F8F8F8"/>
<path d="M474.5 546L506.976 564.75V602.25L474.5 621L442.024 602.25V564.75L474.5 546Z" fill="#F8F8F8"/>
<path d="M474.5 314L506.976 332.75V370.25L474.5 389L442.024 370.25V332.75L474.5 314Z" fill="#F8F8F8"/>
<path d="M474.5 198L506.976 216.75V254.25L474.5 273L442.024 254.25V216.75L474.5 198Z" fill="#F8F8F8"/>
<path d="M474.5 662L506.976 680.75V718.25L474.5 737L442.024 718.25V680.75L474.5 662Z" fill="#F8F8F8"/>
<path d="M474.5 82L506.976 100.75V138.25L474.5 157L442.024 138.25V100.75L474.5 82Z" fill="#F8F8F8"/>
<path d="M474.5 546L506.976 564.75V602.25L474.5 621L442.024 602.25V564.75L474.5 546Z" fill="#F8F8F8"/>
<path d="M474.5 314L506.976 332.75V370.25L474.5 389L442.024 370.25V332.75L474.5 314Z" fill="#F8F8F8"/>
<path d="M474.5 198L506.976 216.75V254.25L474.5 273L442.024 254.25V216.75L474.5 198Z" fill="#F8F8F8"/>
<path d="M474.5 662L506.976 680.75V718.25L474.5 737L442.024 718.25V680.75L474.5 662Z" fill="#F8F8F8"/>
<path d="M678.5 -34L710.976 -15.25V22.25L678.5 41L646.024 22.25V-15.25L678.5 -34Z" fill="#F8F8F8"/>
<path d="M678.5 -34L710.976 -15.25V22.25L678.5 41L646.024 22.25V-15.25L678.5 -34Z" fill="#F8F8F8"/>
<path d="M678.5 -34L710.976 -15.25V22.25L678.5 41L646.024 22.25V-15.25L678.5 -34Z" fill="#F8F8F8"/>
<path d="M678.5 -34L710.976 -15.25V22.25L678.5 41L646.024 22.25V-15.25L678.5 -34Z" fill="#F8F8F8"/>
<path d="M678.5 82L710.976 100.75V138.25L678.5 157L646.024 138.25V100.75L678.5 82Z" fill="#F8F8F8"/>
<path d="M678.5 314L710.976 332.75V370.25L678.5 389L646.024 370.25V332.75L678.5 314Z" fill="#F8F8F8"/>
<path d="M678.5 198L710.976 216.75V254.25L678.5 273L646.024 254.25V216.75L678.5 198Z" fill="#F8F8F8"/>
<path d="M678.5 82L710.976 100.75V138.25L678.5 157L646.024 138.25V100.75L678.5 82Z" fill="#F8F8F8"/>
<path d="M678.5 314L710.976 332.75V370.25L678.5 389L646.024 370.25V332.75L678.5 314Z" fill="#F8F8F8"/>
<path d="M678.5 198L710.976 216.75V254.25L678.5 273L646.024 254.25V216.75L678.5 198Z" fill="#F8F8F8"/>
<path d="M440.5 24L472.976 42.75V80.25L440.5 99L408.024 80.25V42.75L440.5 24Z" fill="#F8F8F8"/>
<path d="M440.5 256L472.976 274.75V312.25L440.5 331L408.024 312.25V274.75L440.5 256Z" fill="#F8F8F8"/>
<path d="M440.5 140L472.976 158.75V196.25L440.5 215L408.024 196.25V158.75L440.5 140Z" fill="#F8F8F8"/>
<path d="M440.5 24L472.976 42.75V80.25L440.5 99L408.024 80.25V42.75L440.5 24Z" fill="#F8F8F8"/>
<path d="M440.5 256L472.976 274.75V312.25L440.5 331L408.024 312.25V274.75L440.5 256Z" fill="#F8F8F8"/>
<path d="M440.5 140L472.976 158.75V196.25L440.5 215L408.024 196.25V158.75L440.5 140Z" fill="#F8F8F8"/>
<path d="M440.5 24L472.976 42.75V80.25L440.5 99L408.024 80.25V42.75L440.5 24Z" fill="#F8F8F8"/>
<path d="M440.5 256L472.976 274.75V312.25L440.5 331L408.024 312.25V274.75L440.5 256Z" fill="#F8F8F8"/>
<path d="M440.5 140L472.976 158.75V196.25L440.5 215L408.024 196.25V158.75L440.5 140Z" fill="#F8F8F8"/>
<path d="M440.5 24L472.976 42.75V80.25L440.5 99L408.024 80.25V42.75L440.5 24Z" fill="#F8F8F8"/>
<path d="M440.5 256L472.976 274.75V312.25L440.5 331L408.024 312.25V274.75L440.5 256Z" fill="#F8F8F8"/>
<path d="M440.5 140L472.976 158.75V196.25L440.5 215L408.024 196.25V158.75L440.5 140Z" fill="#F8F8F8"/>
<path d="M406.5 -34L438.976 -15.25V22.25L406.5 41L374.024 22.25V-15.25L406.5 -34Z" fill="#F8F8F8"/>
<path d="M406.5 -34L438.976 -15.25V22.25L406.5 41L374.024 22.25V-15.25L406.5 -34Z" fill="#F8F8F8"/>
<path d="M406.5 -34L438.976 -15.25V22.25L406.5 41L374.024 22.25V-15.25L406.5 -34Z" fill="#F8F8F8"/>
<path d="M406.5 -34L438.976 -15.25V22.25L406.5 41L374.024 22.25V-15.25L406.5 -34Z" fill="#F8F8F8"/>
<path d="M406.5 82L438.976 100.75V138.25L406.5 157L374.024 138.25V100.75L406.5 82Z" fill="#F8F8F8"/>
<path d="M406.5 314L438.976 332.75V370.25L406.5 389L374.024 370.25V332.75L406.5 314Z" fill="#F8F8F8"/>
<path d="M406.5 198L438.976 216.75V254.25L406.5 273L374.024 254.25V216.75L406.5 198Z" fill="#F8F8F8"/>
<path d="M406.5 430L438.976 448.75V486.25L406.5 505L374.024 486.25V448.75L406.5 430Z" fill="#F8F8F8"/>
<path d="M406.5 82L438.976 100.75V138.25L406.5 157L374.024 138.25V100.75L406.5 82Z" fill="#F8F8F8"/>
<path d="M406.5 314L438.976 332.75V370.25L406.5 389L374.024 370.25V332.75L406.5 314Z" fill="#F8F8F8"/>
<path d="M406.5 198L438.976 216.75V254.25L406.5 273L374.024 254.25V216.75L406.5 198Z" fill="#F8F8F8"/>
<path d="M406.5 430L438.976 448.75V486.25L406.5 505L374.024 486.25V448.75L406.5 430Z" fill="#F8F8F8"/>
<path d="M644.5 24L676.976 42.75V80.25L644.5 99L612.024 80.25V42.75L644.5 24Z" fill="#F8F8F8"/>
<path d="M644.5 488L676.976 506.75V544.25L644.5 563L612.024 544.25V506.75L644.5 488Z" fill="#F8F8F8"/>
<path d="M644.5 256L676.976 274.75V312.25L644.5 331L612.024 312.25V274.75L644.5 256Z" fill="#F8F8F8"/>
<path d="M644.5 140L676.976 158.75V196.25L644.5 215L612.024 196.25V158.75L644.5 140Z" fill="#F8F8F8"/>
<path d="M644.5 372L676.976 390.75V428.25L644.5 447L612.024 428.25V390.75L644.5 372Z" fill="#F8F8F8"/>
<path d="M644.5 24L676.976 42.75V80.25L644.5 99L612.024 80.25V42.75L644.5 24Z" fill="#F8F8F8"/>
<path d="M644.5 488L676.976 506.75V544.25L644.5 563L612.024 544.25V506.75L644.5 488Z" fill="#F8F8F8"/>
<path d="M644.5 256L676.976 274.75V312.25L644.5 331L612.024 312.25V274.75L644.5 256Z" fill="#F8F8F8"/>
<path d="M644.5 140L676.976 158.75V196.25L644.5 215L612.024 196.25V158.75L644.5 140Z" fill="#F8F8F8"/>
<path d="M644.5 372L676.976 390.75V428.25L644.5 447L612.024 428.25V390.75L644.5 372Z" fill="#F8F8F8"/>
<path d="M644.5 24L676.976 42.75V80.25L644.5 99L612.024 80.25V42.75L644.5 24Z" fill="#F8F8F8"/>
<path d="M644.5 488L676.976 506.75V544.25L644.5 563L612.024 544.25V506.75L644.5 488Z" fill="#F8F8F8"/>
<path d="M644.5 256L676.976 274.75V312.25L644.5 331L612.024 312.25V274.75L644.5 256Z" fill="#F8F8F8"/>
<path d="M644.5 140L676.976 158.75V196.25L644.5 215L612.024 196.25V158.75L644.5 140Z" fill="#F8F8F8"/>
<path d="M644.5 372L676.976 390.75V428.25L644.5 447L612.024 428.25V390.75L644.5 372Z" fill="#F8F8F8"/>
<path d="M644.5 24L676.976 42.75V80.25L644.5 99L612.024 80.25V42.75L644.5 24Z" fill="#F8F8F8"/>
<path d="M644.5 488L676.976 506.75V544.25L644.5 563L612.024 544.25V506.75L644.5 488Z" fill="#F8F8F8"/>
<path d="M644.5 256L676.976 274.75V312.25L644.5 331L612.024 312.25V274.75L644.5 256Z" fill="#F8F8F8"/>
<path d="M644.5 140L676.976 158.75V196.25L644.5 215L612.024 196.25V158.75L644.5 140Z" fill="#F8F8F8"/>
<path d="M644.5 372L676.976 390.75V428.25L644.5 447L612.024 428.25V390.75L644.5 372Z" fill="#F8F8F8"/>
<path d="M610.5 -34L642.976 -15.25V22.25L610.5 41L578.024 22.25V-15.25L610.5 -34Z" fill="#F8F8F8"/>
<path d="M610.5 -34L642.976 -15.25V22.25L610.5 41L578.024 22.25V-15.25L610.5 -34Z" fill="#F8F8F8"/>
<path d="M610.5 -34L642.976 -15.25V22.25L610.5 41L578.024 22.25V-15.25L610.5 -34Z" fill="#F8F8F8"/>
<path d="M610.5 -34L642.976 -15.25V22.25L610.5 41L578.024 22.25V-15.25L610.5 -34Z" fill="#F8F8F8"/>
<path d="M610.5 82L642.976 100.75V138.25L610.5 157L578.024 138.25V100.75L610.5 82Z" fill="#F8F8F8"/>
<path d="M610.5 314L642.976 332.75V370.25L610.5 389L578.024 370.25V332.75L610.5 314Z" fill="#F8F8F8"/>
<path d="M610.5 198L642.976 216.75V254.25L610.5 273L578.024 254.25V216.75L610.5 198Z" fill="#F8F8F8"/>
<path d="M610.5 430L642.976 448.75V486.25L610.5 505L578.024 486.25V448.75L610.5 430Z" fill="#F8F8F8"/>
<path d="M610.5 82L642.976 100.75V138.25L610.5 157L578.024 138.25V100.75L610.5 82Z" fill="#F8F8F8"/>
<path d="M610.5 314L642.976 332.75V370.25L610.5 389L578.024 370.25V332.75L610.5 314Z" fill="#F8F8F8"/>
<path d="M610.5 198L642.976 216.75V254.25L610.5 273L578.024 254.25V216.75L610.5 198Z" fill="#F8F8F8"/>
<path d="M610.5 430L642.976 448.75V486.25L610.5 505L578.024 486.25V448.75L610.5 430Z" fill="#F8F8F8"/>
</g>
<mask id="mask3_103_1285" style="mask-type:alpha" maskUnits="userSpaceOnUse" x="0" y="0" width="338" height="826">
<rect y="826" width="826" height="338" transform="rotate(-90 0 826)" fill="white"/>
</mask>
<g mask="url(#mask3_103_1285)">
<rect y="826" width="826" height="338" transform="rotate(-90 0 826)" fill="white"/>
<rect x="-126" width="194.5" height="374" fill="url(#paint3_linear_103_1285)"/>
<path d="M34.5 24L66.976 42.75V80.25L34.5 99L2.02405 80.25V42.75L34.5 24Z" fill="#F8F8F8"/>
<path d="M34.5 488L66.976 506.75V544.25L34.5 563L2.02405 544.25V506.75L34.5 488Z" fill="#F8F8F8"/>
<path d="M34.5 256L66.976 274.75V312.25L34.5 331L2.02405 312.25V274.75L34.5 256Z" fill="#F8F8F8"/>
<path d="M34.5 140L66.976 158.75V196.25L34.5 215L2.02405 196.25V158.75L34.5 140Z" fill="#F8F8F8"/>
<path d="M34.5 604L66.976 622.75V660.25L34.5 679L2.02405 660.25V622.75L34.5 604Z" fill="#F8F8F8"/>
<path d="M34.5 372L66.976 390.75V428.25L34.5 447L2.02405 428.25V390.75L34.5 372Z" fill="#F8F8F8"/>
<path d="M34.5 24L66.976 42.75V80.25L34.5 99L2.02405 80.25V42.75L34.5 24Z" fill="#F8F8F8"/>
<path d="M34.5 488L66.976 506.75V544.25L34.5 563L2.02405 544.25V506.75L34.5 488Z" fill="#F8F8F8"/>
<path d="M34.5 256L66.976 274.75V312.25L34.5 331L2.02405 312.25V274.75L34.5 256Z" fill="#F8F8F8"/>
<path d="M34.5 140L66.976 158.75V196.25L34.5 215L2.02405 196.25V158.75L34.5 140Z" fill="#F8F8F8"/>
<path d="M34.5 604L66.976 622.75V660.25L34.5 679L2.02405 660.25V622.75L34.5 604Z" fill="#F8F8F8"/>
<path d="M34.5 372L66.976 390.75V428.25L34.5 447L2.02405 428.25V390.75L34.5 372Z" fill="#F8F8F8"/>
<path d="M34.5 24L66.976 42.75V80.25L34.5 99L2.02405 80.25V42.75L34.5 24Z" fill="#F8F8F8"/>
<path d="M34.5 488L66.976 506.75V544.25L34.5 563L2.02405 544.25V506.75L34.5 488Z" fill="#F8F8F8"/>
<path d="M34.5 256L66.976 274.75V312.25L34.5 331L2.02405 312.25V274.75L34.5 256Z" fill="#F8F8F8"/>
<path d="M34.5 140L66.976 158.75V196.25L34.5 215L2.02405 196.25V158.75L34.5 140Z" fill="#F8F8F8"/>
<path d="M34.5 604L66.976 622.75V660.25L34.5 679L2.02405 660.25V622.75L34.5 604Z" fill="#F8F8F8"/>
<path d="M34.5 372L66.976 390.75V428.25L34.5 447L2.02405 428.25V390.75L34.5 372Z" fill="#F8F8F8"/>
<path d="M34.5 24L66.976 42.75V80.25L34.5 99L2.02405 80.25V42.75L34.5 24Z" fill="#F8F8F8"/>
<path d="M34.5 488L66.976 506.75V544.25L34.5 563L2.02405 544.25V506.75L34.5 488Z" fill="#F8F8F8"/>
<path d="M34.5 256L66.976 274.75V312.25L34.5 331L2.02405 312.25V274.75L34.5 256Z" fill="#F8F8F8"/>
<path d="M34.5 140L66.976 158.75V196.25L34.5 215L2.02405 196.25V158.75L34.5 140Z" fill="#F8F8F8"/>
<path d="M34.5 604L66.976 622.75V660.25L34.5 679L2.02405 660.25V622.75L34.5 604Z" fill="#F8F8F8"/>
<path d="M34.5 372L66.976 390.75V428.25L34.5 447L2.02405 428.25V390.75L34.5 372Z" fill="#F8F8F8"/>
<path d="M0.5 -34L32.976 -15.25V22.25L0.5 41L-31.976 22.25V-15.25L0.5 -34Z" fill="#F8F8F8"/>
<path d="M0.5 -34L32.976 -15.25V22.25L0.5 41L-31.976 22.25V-15.25L0.5 -34Z" fill="#F8F8F8"/>
<path d="M0.5 -34L32.976 -15.25V22.25L0.5 41L-31.976 22.25V-15.25L0.5 -34Z" fill="#F8F8F8"/>
<path d="M0.5 -34L32.976 -15.25V22.25L0.5 41L-31.976 22.25V-15.25L0.5 -34Z" fill="#F8F8F8"/>
<path d="M0.5 82L32.976 100.75V138.25L0.5 157L-31.976 138.25V100.75L0.5 82Z" fill="#F8F8F8"/>
<path d="M0.5 314L32.976 332.75V370.25L0.5 389L-31.976 370.25V332.75L0.5 314Z" fill="#F8F8F8"/>
<path d="M0.5 198L32.976 216.75V254.25L0.5 273L-31.976 254.25V216.75L0.5 198Z" fill="#F8F8F8"/>
<path d="M0.5 662L32.976 680.75V718.25L0.5 737L-31.976 718.25V680.75L0.5 662Z" fill="#F8F8F8"/>
<path d="M0.5 82L32.976 100.75V138.25L0.5 157L-31.976 138.25V100.75L0.5 82Z" fill="#F8F8F8"/>
<path d="M0.5 314L32.976 332.75V370.25L0.5 389L-31.976 370.25V332.75L0.5 314Z" fill="#F8F8F8"/>
<path d="M0.5 198L32.976 216.75V254.25L0.5 273L-31.976 254.25V216.75L0.5 198Z" fill="#F8F8F8"/>
<path d="M0.5 662L32.976 680.75V718.25L0.5 737L-31.976 718.25V680.75L0.5 662Z" fill="#F8F8F8"/>
<path d="M238.5 24L270.976 42.75V80.25L238.5 99L206.024 80.25V42.75L238.5 24Z" fill="#F8F8F8"/>
<path d="M238.5 256L270.976 274.75V312.25L238.5 331L206.024 312.25V274.75L238.5 256Z" fill="#F8F8F8"/>
<path d="M238.5 140L270.976 158.75V196.25L238.5 215L206.024 196.25V158.75L238.5 140Z" fill="#F8F8F8"/>
<path d="M238.5 24L270.976 42.75V80.25L238.5 99L206.024 80.25V42.75L238.5 24Z" fill="#F8F8F8"/>
<path d="M238.5 256L270.976 274.75V312.25L238.5 331L206.024 312.25V274.75L238.5 256Z" fill="#F8F8F8"/>
<path d="M238.5 140L270.976 158.75V196.25L238.5 215L206.024 196.25V158.75L238.5 140Z" fill="#F8F8F8"/>
<path d="M238.5 24L270.976 42.75V80.25L238.5 99L206.024 80.25V42.75L238.5 24Z" fill="#F8F8F8"/>
<path d="M238.5 256L270.976 274.75V312.25L238.5 331L206.024 312.25V274.75L238.5 256Z" fill="#F8F8F8"/>
<path d="M238.5 140L270.976 158.75V196.25L238.5 215L206.024 196.25V158.75L238.5 140Z" fill="#F8F8F8"/>
<path d="M238.5 24L270.976 42.75V80.25L238.5 99L206.024 80.25V42.75L238.5 24Z" fill="#F8F8F8"/>
<path d="M238.5 256L270.976 274.75V312.25L238.5 331L206.024 312.25V274.75L238.5 256Z" fill="#F8F8F8"/>
<path d="M238.5 140L270.976 158.75V196.25L238.5 215L206.024 196.25V158.75L238.5 140Z" fill="#F8F8F8"/>
<path d="M204.5 -34L236.976 -15.25V22.25L204.5 41L172.024 22.25V-15.25L204.5 -34Z" fill="#F8F8F8"/>
<path d="M204.5 -34L236.976 -15.25V22.25L204.5 41L172.024 22.25V-15.25L204.5 -34Z" fill="#F8F8F8"/>
<path d="M204.5 -34L236.976 -15.25V22.25L204.5 41L172.024 22.25V-15.25L204.5 -34Z" fill="#F8F8F8"/>
<path d="M204.5 -34L236.976 -15.25V22.25L204.5 41L172.024 22.25V-15.25L204.5 -34Z" fill="#F8F8F8"/>
<path d="M204.5 82L236.976 100.75V138.25L204.5 157L172.024 138.25V100.75L204.5 82Z" fill="#F8F8F8"/>
<path d="M204.5 546L236.976 564.75V602.25L204.5 621L172.024 602.25V564.75L204.5 546Z" fill="#F8F8F8"/>
<path d="M204.5 314L236.976 332.75V370.25L204.5 389L172.024 370.25V332.75L204.5 314Z" fill="#F8F8F8"/>
<path d="M204.5 198L236.976 216.75V254.25L204.5 273L172.024 254.25V216.75L204.5 198Z" fill="#F8F8F8"/>
<path d="M204.5 430L236.976 448.75V486.25L204.5 505L172.024 486.25V448.75L204.5 430Z" fill="#F8F8F8"/>
<path d="M204.5 82L236.976 100.75V138.25L204.5 157L172.024 138.25V100.75L204.5 82Z" fill="#F8F8F8"/>
<path d="M204.5 546L236.976 564.75V602.25L204.5 621L172.024 602.25V564.75L204.5 546Z" fill="#F8F8F8"/>
<path d="M204.5 314L236.976 332.75V370.25L204.5 389L172.024 370.25V332.75L204.5 314Z" fill="#F8F8F8"/>
<path d="M204.5 198L236.976 216.75V254.25L204.5 273L172.024 254.25V216.75L204.5 198Z" fill="#F8F8F8"/>
<path d="M204.5 430L236.976 448.75V486.25L204.5 505L172.024 486.25V448.75L204.5 430Z" fill="#F8F8F8"/>
<path d="M170.5 24L202.976 42.75V80.25L170.5 99L138.024 80.25V42.75L170.5 24Z" fill="#F8F8F8"/>
<path d="M170.5 488L202.976 506.75V544.25L170.5 563L138.024 544.25V506.75L170.5 488Z" fill="#F8F8F8"/>
<path d="M170.5 256L202.976 274.75V312.25L170.5 331L138.024 312.25V274.75L170.5 256Z" fill="#F8F8F8"/>
<path d="M170.5 140L202.976 158.75V196.25L170.5 215L138.024 196.25V158.75L170.5 140Z" fill="#F8F8F8"/>
<path d="M170.5 604L202.976 622.75V660.25L170.5 679L138.024 660.25V622.75L170.5 604Z" fill="#F8F8F8"/>
<path d="M170.5 372L202.976 390.75V428.25L170.5 447L138.024 428.25V390.75L170.5 372Z" fill="#F8F8F8"/>
<path d="M170.5 24L202.976 42.75V80.25L170.5 99L138.024 80.25V42.75L170.5 24Z" fill="#F8F8F8"/>
<path d="M170.5 488L202.976 506.75V544.25L170.5 563L138.024 544.25V506.75L170.5 488Z" fill="#F8F8F8"/>
<path d="M170.5 256L202.976 274.75V312.25L170.5 331L138.024 312.25V274.75L170.5 256Z" fill="#F8F8F8"/>
<path d="M170.5 140L202.976 158.75V196.25L170.5 215L138.024 196.25V158.75L170.5 140Z" fill="#F8F8F8"/>
<path d="M170.5 604L202.976 622.75V660.25L170.5 679L138.024 660.25V622.75L170.5 604Z" fill="#F8F8F8"/>
<path d="M170.5 372L202.976 390.75V428.25L170.5 447L138.024 428.25V390.75L170.5 372Z" fill="#F8F8F8"/>
<path d="M170.5 24L202.976 42.75V80.25L170.5 99L138.024 80.25V42.75L170.5 24Z" fill="#F8F8F8"/>
<path d="M170.5 488L202.976 506.75V544.25L170.5 563L138.024 544.25V506.75L170.5 488Z" fill="#F8F8F8"/>
<path d="M170.5 256L202.976 274.75V312.25L170.5 331L138.024 312.25V274.75L170.5 256Z" fill="#F8F8F8"/>
<path d="M170.5 140L202.976 158.75V196.25L170.5 215L138.024 196.25V158.75L170.5 140Z" fill="#F8F8F8"/>
<path d="M170.5 604L202.976 622.75V660.25L170.5 679L138.024 660.25V622.75L170.5 604Z" fill="#F8F8F8"/>
<path d="M170.5 372L202.976 390.75V428.25L170.5 447L138.024 428.25V390.75L170.5 372Z" fill="#F8F8F8"/>
<path d="M170.5 24L202.976 42.75V80.25L170.5 99L138.024 80.25V42.75L170.5 24Z" fill="#F8F8F8"/>
<path d="M170.5 488L202.976 506.75V544.25L170.5 563L138.024 544.25V506.75L170.5 488Z" fill="#F8F8F8"/>
<path d="M170.5 256L202.976 274.75V312.25L170.5 331L138.024 312.25V274.75L170.5 256Z" fill="#F8F8F8"/>
<path d="M170.5 140L202.976 158.75V196.25L170.5 215L138.024 196.25V158.75L170.5 140Z" fill="#F8F8F8"/>
<path d="M170.5 604L202.976 622.75V660.25L170.5 679L138.024 660.25V622.75L170.5 604Z" fill="#F8F8F8"/>
<path d="M170.5 372L202.976 390.75V428.25L170.5 447L138.024 428.25V390.75L170.5 372Z" fill="#F8F8F8"/>
<path d="M136.5 -34L168.976 -15.25V22.25L136.5 41L104.024 22.25V-15.25L136.5 -34Z" fill="#F8F8F8"/>
<path d="M136.5 -34L168.976 -15.25V22.25L136.5 41L104.024 22.25V-15.25L136.5 -34Z" fill="#F8F8F8"/>
<path d="M136.5 -34L168.976 -15.25V22.25L136.5 41L104.024 22.25V-15.25L136.5 -34Z" fill="#F8F8F8"/>
<path d="M136.5 -34L168.976 -15.25V22.25L136.5 41L104.024 22.25V-15.25L136.5 -34Z" fill="#F8F8F8"/>
<path d="M136.5 82L168.976 100.75V138.25L136.5 157L104.024 138.25V100.75L136.5 82Z" fill="#F8F8F8"/>
<path d="M136.5 546L168.976 564.75V602.25L136.5 621L104.024 602.25V564.75L136.5 546Z" fill="#F8F8F8"/>
<path d="M136.5 314L168.976 332.75V370.25L136.5 389L104.024 370.25V332.75L136.5 314Z" fill="#F8F8F8"/>
<path d="M136.5 198L168.976 216.75V254.25L136.5 273L104.024 254.25V216.75L136.5 198Z" fill="#F8F8F8"/>
<path d="M136.5 82L168.976 100.75V138.25L136.5 157L104.024 138.25V100.75L136.5 82Z" fill="#F8F8F8"/>
<path d="M136.5 546L168.976 564.75V602.25L136.5 621L104.024 602.25V564.75L136.5 546Z" fill="#F8F8F8"/>
<path d="M136.5 314L168.976 332.75V370.25L136.5 389L104.024 370.25V332.75L136.5 314Z" fill="#F8F8F8"/>
<path d="M136.5 198L168.976 216.75V254.25L136.5 273L104.024 254.25V216.75L136.5 198Z" fill="#F8F8F8"/>
<path d="M340.5 -34L372.976 -15.25V22.25L340.5 41L308.024 22.25V-15.25L340.5 -34Z" fill="#F8F8F8"/>
<path d="M340.5 -34L372.976 -15.25V22.25L340.5 41L308.024 22.25V-15.25L340.5 -34Z" fill="#F8F8F8"/>
<path d="M340.5 -34L372.976 -15.25V22.25L340.5 41L308.024 22.25V-15.25L340.5 -34Z" fill="#F8F8F8"/>
<path d="M340.5 -34L372.976 -15.25V22.25L340.5 41L308.024 22.25V-15.25L340.5 -34Z" fill="#F8F8F8"/>
<path d="M340.5 82L372.976 100.75V138.25L340.5 157L308.024 138.25V100.75L340.5 82Z" fill="#F8F8F8"/>
<path d="M340.5 314L372.976 332.75V370.25L340.5 389L308.024 370.25V332.75L340.5 314Z" fill="#F8F8F8"/>
<path d="M340.5 198L372.976 216.75V254.25L340.5 273L308.024 254.25V216.75L340.5 198Z" fill="#F8F8F8"/>
<path d="M340.5 82L372.976 100.75V138.25L340.5 157L308.024 138.25V100.75L340.5 82Z" fill="#F8F8F8"/>
<path d="M340.5 314L372.976 332.75V370.25L340.5 389L308.024 370.25V332.75L340.5 314Z" fill="#F8F8F8"/>
<path d="M340.5 198L372.976 216.75V254.25L340.5 273L308.024 254.25V216.75L340.5 198Z" fill="#F8F8F8"/>
<path d="M102.5 24L134.976 42.75V80.25L102.5 99L70.024 80.25V42.75L102.5 24Z" fill="#F8F8F8"/>
<path d="M102.5 488L134.976 506.75V544.25L102.5 563L70.024 544.25V506.75L102.5 488Z" fill="#F8F8F8"/>
<path d="M102.5 256L134.976 274.75V312.25L102.5 331L70.024 312.25V274.75L102.5 256Z" fill="#F8F8F8"/>
<path d="M102.5 140L134.976 158.75V196.25L102.5 215L70.024 196.25V158.75L102.5 140Z" fill="#F8F8F8"/>
<path d="M102.5 24L134.976 42.75V80.25L102.5 99L70.024 80.25V42.75L102.5 24Z" fill="#F8F8F8"/>
<path d="M102.5 488L134.976 506.75V544.25L102.5 563L70.024 544.25V506.75L102.5 488Z" fill="#F8F8F8"/>
<path d="M102.5 256L134.976 274.75V312.25L102.5 331L70.024 312.25V274.75L102.5 256Z" fill="#F8F8F8"/>
<path d="M102.5 140L134.976 158.75V196.25L102.5 215L70.024 196.25V158.75L102.5 140Z" fill="#F8F8F8"/>
<path d="M102.5 24L134.976 42.75V80.25L102.5 99L70.024 80.25V42.75L102.5 24Z" fill="#F8F8F8"/>
<path d="M102.5 488L134.976 506.75V544.25L102.5 563L70.024 544.25V506.75L102.5 488Z" fill="#F8F8F8"/>
<path d="M102.5 256L134.976 274.75V312.25L102.5 331L70.024 312.25V274.75L102.5 256Z" fill="#F8F8F8"/>
<path d="M102.5 140L134.976 158.75V196.25L102.5 215L70.024 196.25V158.75L102.5 140Z" fill="#F8F8F8"/>
<path d="M102.5 24L134.976 42.75V80.25L102.5 99L70.024 80.25V42.75L102.5 24Z" fill="#F8F8F8"/>
<path d="M102.5 488L134.976 506.75V544.25L102.5 563L70.024 544.25V506.75L102.5 488Z" fill="#F8F8F8"/>
<path d="M102.5 256L134.976 274.75V312.25L102.5 331L70.024 312.25V274.75L102.5 256Z" fill="#F8F8F8"/>
<path d="M102.5 140L134.976 158.75V196.25L102.5 215L70.024 196.25V158.75L102.5 140Z" fill="#F8F8F8"/>
<path d="M68.5 -34L100.976 -15.25V22.25L68.5 41L36.024 22.25V-15.25L68.5 -34Z" fill="#F8F8F8"/>
<path d="M68.5 -34L100.976 -15.25V22.25L68.5 41L36.024 22.25V-15.25L68.5 -34Z" fill="#F8F8F8"/>
<path d="M68.5 -34L100.976 -15.25V22.25L68.5 41L36.024 22.25V-15.25L68.5 -34Z" fill="#F8F8F8"/>
<path d="M68.5 -34L100.976 -15.25V22.25L68.5 41L36.024 22.25V-15.25L68.5 -34Z" fill="#F8F8F8"/>
<path d="M68.5 82L100.976 100.75V138.25L68.5 157L36.024 138.25V100.75L68.5 82Z" fill="#F8F8F8"/>
<path d="M68.5 314L100.976 332.75V370.25L68.5 389L36.024 370.25V332.75L68.5 314Z" fill="#F8F8F8"/>
<path d="M68.5 198L100.976 216.75V254.25L68.5 273L36.024 254.25V216.75L68.5 198Z" fill="#F8F8F8"/>
<path d="M68.5 430L100.976 448.75V486.25L68.5 505L36.024 486.25V448.75L68.5 430Z" fill="#F8F8F8"/>
<path d="M68.5 82L100.976 100.75V138.25L68.5 157L36.024 138.25V100.75L68.5 82Z" fill="#F8F8F8"/>
<path d="M68.5 314L100.976 332.75V370.25L68.5 389L36.024 370.25V332.75L68.5 314Z" fill="#F8F8F8"/>
<path d="M68.5 198L100.976 216.75V254.25L68.5 273L36.024 254.25V216.75L68.5 198Z" fill="#F8F8F8"/>
<path d="M68.5 430L100.976 448.75V486.25L68.5 505L36.024 486.25V448.75L68.5 430Z" fill="#F8F8F8"/>
<path d="M306.5 24L338.976 42.75V80.25L306.5 99L274.024 80.25V42.75L306.5 24Z" fill="#F8F8F8"/>
<path d="M306.5 488L338.976 506.75V544.25L306.5 563L274.024 544.25V506.75L306.5 488Z" fill="#F8F8F8"/>
<path d="M306.5 256L338.976 274.75V312.25L306.5 331L274.024 312.25V274.75L306.5 256Z" fill="#F8F8F8"/>
<path d="M306.5 140L338.976 158.75V196.25L306.5 215L274.024 196.25V158.75L306.5 140Z" fill="#F8F8F8"/>
<path d="M306.5 372L338.976 390.75V428.25L306.5 447L274.024 428.25V390.75L306.5 372Z" fill="#F8F8F8"/>
<path d="M306.5 24L338.976 42.75V80.25L306.5 99L274.024 80.25V42.75L306.5 24Z" fill="#F8F8F8"/>
<path d="M306.5 488L338.976 506.75V544.25L306.5 563L274.024 544.25V506.75L306.5 488Z" fill="#F8F8F8"/>
<path d="M306.5 256L338.976 274.75V312.25L306.5 331L274.024 312.25V274.75L306.5 256Z" fill="#F8F8F8"/>
<path d="M306.5 140L338.976 158.75V196.25L306.5 215L274.024 196.25V158.75L306.5 140Z" fill="#F8F8F8"/>
<path d="M306.5 372L338.976 390.75V428.25L306.5 447L274.024 428.25V390.75L306.5 372Z" fill="#F8F8F8"/>
<path d="M306.5 24L338.976 42.75V80.25L306.5 99L274.024 80.25V42.75L306.5 24Z" fill="#F8F8F8"/>
<path d="M306.5 488L338.976 506.75V544.25L306.5 563L274.024 544.25V506.75L306.5 488Z" fill="#F8F8F8"/>
<path d="M306.5 256L338.976 274.75V312.25L306.5 331L274.024 312.25V274.75L306.5 256Z" fill="#F8F8F8"/>
<path d="M306.5 140L338.976 158.75V196.25L306.5 215L274.024 196.25V158.75L306.5 140Z" fill="#F8F8F8"/>
<path d="M306.5 372L338.976 390.75V428.25L306.5 447L274.024 428.25V390.75L306.5 372Z" fill="#F8F8F8"/>
<path d="M306.5 24L338.976 42.75V80.25L306.5 99L274.024 80.25V42.75L306.5 24Z" fill="#F8F8F8"/>
<path d="M306.5 488L338.976 506.75V544.25L306.5 563L274.024 544.25V506.75L306.5 488Z" fill="#F8F8F8"/>
<path d="M306.5 256L338.976 274.75V312.25L306.5 331L274.024 312.25V274.75L306.5 256Z" fill="#F8F8F8"/>
<path d="M306.5 140L338.976 158.75V196.25L306.5 215L274.024 196.25V158.75L306.5 140Z" fill="#F8F8F8"/>
<path d="M306.5 372L338.976 390.75V428.25L306.5 447L274.024 428.25V390.75L306.5 372Z" fill="#F8F8F8"/>
<path d="M272.5 -34L304.976 -15.25V22.25L272.5 41L240.024 22.25V-15.25L272.5 -34Z" fill="#F8F8F8"/>
<path d="M272.5 -34L304.976 -15.25V22.25L272.5 41L240.024 22.25V-15.25L272.5 -34Z" fill="#F8F8F8"/>
<path d="M272.5 -34L304.976 -15.25V22.25L272.5 41L240.024 22.25V-15.25L272.5 -34Z" fill="#F8F8F8"/>
<path d="M272.5 -34L304.976 -15.25V22.25L272.5 41L240.024 22.25V-15.25L272.5 -34Z" fill="#F8F8F8"/>
<path d="M272.5 82L304.976 100.75V138.25L272.5 157L240.024 138.25V100.75L272.5 82Z" fill="#F8F8F8"/>
<path d="M272.5 314L304.976 332.75V370.25L272.5 389L240.024 370.25V332.75L272.5 314Z" fill="#F8F8F8"/>
<path d="M272.5 430L304.976 448.75V486.25L272.5 505L240.024 486.25V448.75L272.5 430Z" fill="#F8F8F8"/>
<path d="M272.5 82L304.976 100.75V138.25L272.5 157L240.024 138.25V100.75L272.5 82Z" fill="#F8F8F8"/>
<path d="M272.5 314L304.976 332.75V370.25L272.5 389L240.024 370.25V332.75L272.5 314Z" fill="#F8F8F8"/>
<path d="M272.5 430L304.976 448.75V486.25L272.5 505L240.024 486.25V448.75L272.5 430Z" fill="#F8F8F8"/>
</g>
<defs>
<linearGradient id="paint0_linear_103_1285" x1="1281.25" y1="62.8272" x2="1281.25" y2="186.974" gradientUnits="userSpaceOnUse">
<stop stop-color="#2487CE"/>
<stop offset="1" stop-color="#2487CE" stop-opacity="0"/>
</linearGradient>
<linearGradient id="paint1_linear_103_1285" x1="647.25" y1="122.382" x2="647.25" y2="364.209" gradientUnits="userSpaceOnUse">
<stop stop-color="#2487CE"/>
<stop offset="1" stop-color="#2487CE" stop-opacity="0"/>
</linearGradient>
<linearGradient id="paint2_linear_103_1285" x1="605.25" y1="62.8272" x2="605.25" y2="186.974" gradientUnits="userSpaceOnUse">
<stop stop-color="#2487CE"/>
<stop offset="1" stop-color="#2487CE" stop-opacity="0"/>
</linearGradient>
<linearGradient id="paint3_linear_103_1285" x1="-28.75" y1="122.382" x2="-28.75" y2="364.209" gradientUnits="userSpaceOnUse">
<stop stop-color="#2487CE"/>
<stop offset="1" stop-color="#2487CE" stop-opacity="0"/>
</linearGradient>
</defs>
</svg>
