<svg width="464" height="239" viewBox="0 0 464 239" fill="none" xmlns="http://www.w3.org/2000/svg">
<path d="M0.455994 144V106.88H30.536C31.944 106.88 33.224 107.243 34.376 107.968C35.5707 108.651 36.5093 109.589 37.192 110.784C37.9173 111.936 38.28 113.216 38.28 114.624V144H33.032V129.312V114.624C33.032 113.941 32.776 113.365 32.264 112.896C31.7947 112.384 31.2187 112.128 30.536 112.128H8.26399C7.58133 112.128 6.98399 112.384 6.47199 112.896C5.95999 113.365 5.70399 113.941 5.70399 114.624V144H0.455994Z" fill="#2487CE"/>
<path d="M52.6985 144C51.2905 144 49.9892 143.659 48.7945 142.976C47.6425 142.251 46.7038 141.312 45.9785 140.16C45.2958 138.965 44.9545 137.664 44.9545 136.256V106.88H50.2025V136.256C50.2025 136.939 50.4372 137.536 50.9065 138.048C51.4185 138.517 52.0158 138.752 52.6985 138.752H74.9705C75.6532 138.752 76.2505 138.517 76.7625 138.048C77.2745 137.536 77.5305 136.939 77.5305 136.256V106.88H82.7785V136.256C82.7785 137.664 82.4158 138.965 81.6905 140.16C81.0078 141.312 80.0692 142.251 78.8745 142.976C77.7225 143.659 76.4212 144 74.9705 144H52.6985Z" fill="#2487CE"/>
<path d="M88.2685 144V106.88H137.292C138.743 106.88 140.045 107.243 141.197 107.968C142.391 108.651 143.33 109.589 144.012 110.784C144.695 111.936 145.036 113.216 145.036 114.624V144H139.852V114.624C139.852 113.941 139.597 113.365 139.085 112.896C138.573 112.384 137.975 112.128 137.292 112.128H121.868C121.186 112.128 120.588 112.384 120.076 112.896C119.607 113.365 119.372 113.941 119.372 114.624V144H114.06V114.624C114.06 113.941 113.804 113.365 113.292 112.896C112.823 112.384 112.247 112.128 111.564 112.128H96.0765C95.3938 112.128 94.7965 112.384 94.2845 112.896C93.8152 113.365 93.5805 113.941 93.5805 114.624V144H88.2685Z" fill="#2487CE"/>
<path d="M150.831 144V94.72H156.079V106.88H180.911C182.319 106.88 183.599 107.243 184.751 107.968C185.946 108.651 186.884 109.589 187.567 110.784C188.292 111.936 188.655 113.216 188.655 114.624V136.256C188.655 137.664 188.292 138.965 187.567 140.16C186.884 141.312 185.946 142.251 184.751 142.976C183.599 143.659 182.319 144 180.911 144H150.831ZM158.639 138.752H180.911C181.594 138.752 182.17 138.517 182.639 138.048C183.151 137.536 183.407 136.939 183.407 136.256V114.624C183.407 113.941 183.151 113.365 182.639 112.896C182.17 112.384 181.594 112.128 180.911 112.128H158.639C157.956 112.128 157.359 112.384 156.847 112.896C156.335 113.365 156.079 113.941 156.079 114.624V136.256C156.079 136.939 156.335 137.536 156.847 138.048C157.359 138.517 157.956 138.752 158.639 138.752Z" fill="#2487CE"/>
<path d="M201.07 144C199.662 144 198.361 143.659 197.166 142.976C196.014 142.251 195.076 141.312 194.35 140.16C193.668 138.965 193.326 137.664 193.326 136.256V114.624C193.326 113.216 193.668 111.936 194.35 110.784C195.076 109.589 196.014 108.651 197.166 107.968C198.361 107.243 199.662 106.88 201.07 106.88H223.342C224.793 106.88 226.094 107.243 227.246 107.968C228.441 108.651 229.38 109.589 230.062 110.784C230.788 111.936 231.15 113.216 231.15 114.624V128.064H198.574V136.256C198.574 136.939 198.809 137.536 199.278 138.048C199.79 138.517 200.388 138.752 201.07 138.752H231.15V144H201.07ZM198.574 122.816H225.839V114.624C225.839 113.941 225.582 113.365 225.07 112.896C224.601 112.384 224.025 112.128 223.342 112.128H201.07C200.388 112.128 199.79 112.384 199.278 112.896C198.809 113.365 198.574 113.941 198.574 114.624V122.816Z" fill="#2487CE"/>
<path d="M237.39 144V129.312V114.624C237.39 113.216 237.732 111.936 238.414 110.784C239.14 109.589 240.078 108.651 241.23 107.968C242.425 107.243 243.726 106.88 245.134 106.88H265.999V112.128H245.134C244.452 112.128 243.854 112.384 243.342 112.896C242.873 113.365 242.638 113.941 242.638 114.624V144H237.39Z" fill="#2487CE"/>
<path d="M295.322 144C293.914 144 292.613 143.659 291.418 142.976C290.266 142.251 289.327 141.312 288.602 140.16C287.919 138.965 287.578 137.664 287.578 136.256V94.72H292.826V136.256C292.826 136.939 293.061 137.536 293.53 138.048C294.042 138.517 294.639 138.752 295.322 138.752H301.594V144H295.322Z" fill="#124265"/>
<path d="M306.891 144V106.88H312.138V144H306.891ZM306.891 99.968V94.72H312.138V99.968H306.891Z" fill="#124265"/>
<path d="M319.393 144V106.88H349.474C350.882 106.88 352.162 107.243 353.314 107.968C354.508 108.651 355.447 109.589 356.129 110.784C356.855 111.936 357.217 113.216 357.217 114.624V144H351.969V114.624C351.969 113.941 351.714 113.365 351.202 112.896C350.732 112.384 350.156 112.128 349.474 112.128H327.202C326.519 112.128 325.921 112.384 325.409 112.896C324.897 113.365 324.641 113.941 324.641 114.624V144H319.393Z" fill="#124265"/>
<path d="M363.956 144V94.72H369.204V122.816H379.444L394.036 106.88H400.948V106.944L384.116 125.44L400.884 143.936V144H394.036L379.444 128.064H369.204V144H363.956Z" fill="#124265"/>
<path d="M245.186 84.1723C243.624 83.6194 242.802 81.9029 243.398 80.357C252.011 58.0161 267.814 39.1381 288.357 26.7295C309.758 13.803 334.978 8.69682 359.721 12.2809C384.464 15.8649 407.199 27.9174 424.052 46.3848C440.906 64.8522 450.834 88.5919 452.146 113.559C453.458 138.526 446.072 163.175 431.248 183.307C416.423 203.439 395.076 217.808 370.845 223.966C346.614 230.124 320.997 227.689 298.36 217.076C276.629 206.889 258.934 189.772 248.028 168.456C247.273 166.981 247.911 165.188 249.406 164.475L251.391 163.528C252.886 162.814 254.673 163.451 255.431 164.924C265.519 184.528 281.827 200.27 301.84 209.652C322.76 219.459 346.433 221.709 368.826 216.019C391.218 210.329 410.945 197.05 424.645 178.445C438.345 159.841 445.17 137.062 443.958 113.989C442.745 90.9166 433.57 68.9782 417.996 51.912C402.421 34.8458 381.412 23.7078 358.546 20.3957C335.68 17.0836 312.373 21.8024 292.597 33.748C273.677 45.1758 259.108 62.5412 251.131 83.0941C250.532 84.6387 248.822 85.4591 247.26 84.9062L245.186 84.1723Z" fill="#2487CE"/>
</svg>
